<svg width="36" height="48" viewBox="0 0 36 48" fill="none" xmlns="http://www.w3.org/2000/svg">
<path d="M0 0H36V38L18 48L0 38V0Z" fill="url(#paint0_linear_4509_162)"/>
<path d="M10.196 28.096V28.852H15.116V28.096H10.196ZM10.196 26.788V27.544H15.116V26.788H10.196ZM9.368 26.224H15.98V29.428H9.368V26.224ZM8.78 30.208C9.356 30.2 10.016 30.192 10.76 30.184C11.504 30.176 12.296 30.164 13.136 30.148C13.976 30.124 14.816 30.104 15.656 30.088L15.62 30.748C14.812 30.772 14 30.796 13.184 30.82C12.368 30.844 11.592 30.864 10.856 30.88C10.12 30.896 9.456 30.912 8.864 30.928L8.78 30.208ZM14.144 29.536L14.744 29.188C14.984 29.348 15.224 29.528 15.464 29.728C15.704 29.92 15.928 30.116 16.136 30.316C16.352 30.516 16.528 30.696 16.664 30.856L16.004 31.264C15.884 31.104 15.72 30.924 15.512 30.724C15.312 30.516 15.092 30.308 14.852 30.1C14.612 29.892 14.376 29.704 14.144 29.536ZM12.2 24.016H13.064V30.46L12.2 30.544V24.016ZM8.552 31.576H16.592V32.296H8.552V31.576ZM14.024 30.544H14.888V34.012C14.888 34.252 14.856 34.436 14.792 34.564C14.728 34.692 14.604 34.784 14.42 34.84C14.236 34.904 13.988 34.94 13.676 34.948C13.364 34.964 12.976 34.972 12.512 34.972C12.496 34.852 12.46 34.72 12.404 34.576C12.348 34.432 12.292 34.304 12.236 34.192C12.484 34.2 12.712 34.204 12.92 34.204C13.128 34.212 13.308 34.212 13.46 34.204C13.612 34.204 13.72 34.204 13.784 34.204C13.88 34.196 13.944 34.176 13.976 34.144C14.008 34.12 14.024 34.068 14.024 33.988V30.544ZM9.836 32.716L10.496 32.296C10.776 32.52 11.06 32.784 11.348 33.088C11.644 33.384 11.876 33.644 12.044 33.868L11.336 34.36C11.184 34.128 10.964 33.86 10.676 33.556C10.396 33.244 10.116 32.964 9.836 32.716ZM8.876 24.844H16.46V25.54H8.876V24.844ZM8.228 23.968L9.08 24.22C8.824 24.9 8.52 25.572 8.168 26.236C7.816 26.892 7.436 27.512 7.028 28.096C6.62 28.68 6.196 29.196 5.756 29.644C5.732 29.572 5.688 29.48 5.624 29.368C5.568 29.256 5.504 29.144 5.432 29.032C5.368 28.912 5.308 28.82 5.252 28.756C5.652 28.364 6.036 27.912 6.404 27.4C6.772 26.888 7.112 26.34 7.424 25.756C7.736 25.164 8.004 24.568 8.228 23.968ZM6.98 27.052L7.832 26.2L7.844 26.212V34.936H6.98V27.052ZM26.396 27.988V29.896H29.816V27.988H26.396ZM25.568 27.184H30.692V30.688H25.568V27.184ZM28.508 30.472H29.372V33.748C29.372 33.892 29.388 33.98 29.42 34.012C29.46 34.052 29.54 34.072 29.66 34.072C29.7 34.072 29.772 34.072 29.876 34.072C29.988 34.072 30.1 34.072 30.212 34.072C30.332 34.072 30.416 34.072 30.464 34.072C30.552 34.072 30.616 34.04 30.656 33.976C30.704 33.904 30.736 33.756 30.752 33.532C30.776 33.308 30.792 32.964 30.8 32.5C30.864 32.556 30.94 32.608 31.028 32.656C31.116 32.696 31.208 32.736 31.304 32.776C31.408 32.808 31.5 32.836 31.58 32.86C31.556 33.396 31.508 33.812 31.436 34.108C31.372 34.404 31.268 34.608 31.124 34.72C30.988 34.832 30.8 34.888 30.56 34.888C30.512 34.888 30.44 34.888 30.344 34.888C30.248 34.888 30.148 34.888 30.044 34.888C29.94 34.888 29.84 34.888 29.744 34.888C29.648 34.888 29.58 34.888 29.54 34.888C29.268 34.888 29.056 34.852 28.904 34.78C28.752 34.716 28.648 34.6 28.592 34.432C28.536 34.272 28.508 34.044 28.508 33.748V30.472ZM26.576 30.568H27.464C27.424 31.104 27.356 31.596 27.26 32.044C27.172 32.492 27.032 32.9 26.84 33.268C26.648 33.628 26.388 33.948 26.06 34.228C25.732 34.516 25.312 34.76 24.8 34.96C24.768 34.888 24.72 34.808 24.656 34.72C24.6 34.64 24.536 34.556 24.464 34.468C24.4 34.38 24.336 34.312 24.272 34.264C24.728 34.096 25.096 33.896 25.376 33.664C25.664 33.424 25.888 33.152 26.048 32.848C26.216 32.544 26.336 32.204 26.408 31.828C26.488 31.444 26.544 31.024 26.576 30.568ZM26.624 24.292H29.48V25.12H26.624V24.292ZM26.06 25.216L26.948 25.444C26.756 25.924 26.504 26.412 26.192 26.908C25.888 27.396 25.556 27.812 25.196 28.156C25.108 28.068 24.996 27.976 24.86 27.88C24.724 27.776 24.604 27.696 24.5 27.64C24.844 27.336 25.156 26.96 25.436 26.512C25.716 26.056 25.924 25.624 26.06 25.216ZM28.748 24.292H29.708C29.844 24.692 30.012 25.088 30.212 25.48C30.42 25.864 30.648 26.22 30.896 26.548C31.144 26.876 31.392 27.152 31.64 27.376C31.568 27.416 31.48 27.472 31.376 27.544C31.28 27.608 31.188 27.676 31.1 27.748C31.02 27.82 30.948 27.888 30.884 27.952C30.5 27.568 30.136 27.092 29.792 26.524C29.456 25.948 29.176 25.36 28.952 24.76H28.748V24.292ZM20.96 27.556H24.476V28.264H20.96V27.556ZM21.008 24.34H24.428V25.06H21.008V24.34ZM20.96 29.152H24.476V29.872H20.96V29.152ZM20.396 25.912H24.872V26.668H20.396V25.912ZM21.368 30.772H24.488V34.276H21.368V33.532H23.696V31.528H21.368V30.772ZM20.948 30.772H21.74V34.828H20.948V30.772Z" fill="white"/>
<path d="M25.4286 8.57143L22 12L18 6.28571L14 12L10.5714 8.57143V16C10.5714 16.4547 10.752 16.8907 11.0735 17.2122C11.395 17.5337 11.831 17.7143 12.2857 17.7143H23.7143C24.1689 17.7143 24.605 17.5337 24.9265 17.2122C25.2479 16.8907 25.4286 16.4547 25.4286 16V8.57143Z" stroke="white" stroke-linecap="round" stroke-linejoin="round"/>
<defs>
<linearGradient id="paint0_linear_4509_162" x1="1" y1="21" x2="36" y2="21" gradientUnits="userSpaceOnUse">
<stop offset="0.5" stop-color="#5AAF5E"/>
<stop offset="0.5" stop-color="#65BF69"/>
</linearGradient>
</defs>
</svg>
