<svg width="36" height="48" viewBox="0 0 36 48" fill="none" xmlns="http://www.w3.org/2000/svg">
<path d="M0 0H36V38L18 48L0 38V0Z" fill="url(#paint0_linear_4508_33)"/>
<path d="M10.652 28.372H15.92V29.152H10.652V28.372ZM10.64 30.748H16.052V31.564H10.64V30.748ZM12.788 23.92H13.652V34.96H12.788V23.92ZM10.208 25.996H16.34V32.02H15.476V26.824H11.036V32.08H10.208V25.996ZM5.72 26.176H9.344V26.992H5.72V26.176ZM7.364 23.92H8.24V26.584H7.364V23.92ZM8.336 28.9C8.424 28.956 8.544 29.056 8.696 29.2C8.856 29.336 9.028 29.488 9.212 29.656C9.396 29.816 9.564 29.968 9.716 30.112C9.868 30.248 9.976 30.348 10.04 30.412L9.512 31.144C9.424 31.032 9.304 30.896 9.152 30.736C9.008 30.576 8.852 30.404 8.684 30.22C8.516 30.036 8.356 29.868 8.204 29.716C8.052 29.564 7.928 29.44 7.832 29.344L8.336 28.9ZM9.032 26.176H9.212L9.38 26.14L9.872 26.464C9.6 27.192 9.24 27.892 8.792 28.564C8.352 29.228 7.868 29.836 7.34 30.388C6.812 30.94 6.284 31.404 5.756 31.78C5.724 31.692 5.68 31.596 5.624 31.492C5.568 31.388 5.512 31.288 5.456 31.192C5.4 31.088 5.344 31.012 5.288 30.964C5.792 30.636 6.284 30.228 6.764 29.74C7.252 29.252 7.696 28.716 8.096 28.132C8.496 27.548 8.808 26.956 9.032 26.356V26.176ZM7.364 29.776L8.24 28.708V34.936H7.364V29.776ZM25.664 30.304H30.956V34.9H30.056V31.12H26.516V34.96H25.664V30.304ZM30.428 24.112L31.088 24.856C30.6 25 30.04 25.128 29.408 25.24C28.776 25.352 28.124 25.452 27.452 25.54C26.78 25.62 26.132 25.684 25.508 25.732C25.492 25.628 25.456 25.504 25.4 25.36C25.352 25.208 25.3 25.08 25.244 24.976C25.7 24.928 26.168 24.876 26.648 24.82C27.128 24.764 27.6 24.7 28.064 24.628C28.528 24.548 28.96 24.468 29.36 24.388C29.768 24.3 30.124 24.208 30.428 24.112ZM27.776 25.024H28.688V30.724H27.776V25.024ZM24.956 27.424H31.52V28.276H24.956V27.424ZM26.216 33.532H30.512V34.36H26.216V33.532ZM20.972 27.616H24.488V28.336H20.972V27.616ZM21.044 24.34H24.464V25.06H21.044V24.34ZM20.972 29.26H24.488V29.968H20.972V29.26ZM20.396 25.948H24.872V26.692H20.396V25.948ZM21.416 30.904H24.524V34.396H21.416V33.664H23.72V31.648H21.416V30.904ZM20.948 30.904H21.74V34.948H20.948V30.904Z" fill="white"/>
<g clip-path="url(#clip0_4508_33)">
<path d="M18.56 5.24571L20.3771 8.91428C20.4185 9.0074 20.4835 9.08805 20.5657 9.14821C20.6479 9.20837 20.7445 9.24592 20.8457 9.25714L24.8571 9.85143C24.9733 9.86635 25.0828 9.91402 25.1729 9.98886C25.2629 10.0637 25.3299 10.1626 25.3658 10.2741C25.4018 10.3855 25.4053 10.5049 25.3759 10.6183C25.3465 10.7316 25.2855 10.8343 25.2 10.9143L22.3086 13.7829C22.2348 13.8518 22.1794 13.9381 22.1475 14.0339C22.1155 14.1297 22.108 14.232 22.1257 14.3314L22.8229 18.3657C22.843 18.4816 22.8303 18.6009 22.786 18.7099C22.7418 18.819 22.6678 18.9134 22.5726 18.9824C22.4773 19.0515 22.3646 19.0924 22.2472 19.1006C22.1298 19.1088 22.0125 19.0838 21.9086 19.0286L18.2971 17.12C18.2047 17.0746 18.103 17.051 18 17.051C17.897 17.051 17.7953 17.0746 17.7029 17.12L14.0914 19.0286C13.9875 19.0838 13.8702 19.1088 13.7528 19.1006C13.6354 19.0924 13.5227 19.0515 13.4274 18.9824C13.3322 18.9134 13.2582 18.819 13.214 18.7099C13.1697 18.6009 13.157 18.4816 13.1771 18.3657L13.8743 14.2857C13.892 14.1863 13.8845 14.084 13.8525 13.9882C13.8206 13.8924 13.7652 13.8061 13.6914 13.7371L10.7657 10.9143C10.6792 10.8321 10.6183 10.7266 10.5905 10.6105C10.5627 10.4945 10.5691 10.3728 10.609 10.2603C10.6489 10.1479 10.7206 10.0494 10.8154 9.97679C10.9101 9.90421 11.0239 9.86066 11.1429 9.85143L15.1543 9.25714C15.2555 9.24592 15.3521 9.20837 15.4343 9.14821C15.5165 9.08805 15.5815 9.0074 15.6229 8.91428L17.44 5.24571C17.4895 5.13886 17.5685 5.0484 17.6677 4.98501C17.767 4.92161 17.8823 4.88792 18 4.88792C18.1178 4.88792 18.233 4.92161 18.3323 4.98501C18.4315 5.0484 18.5105 5.13886 18.56 5.24571V5.24571Z" stroke="white" stroke-linecap="round" stroke-linejoin="round"/>
</g>
<defs>
<linearGradient id="paint0_linear_4508_33" x1="1" y1="21" x2="36" y2="21" gradientUnits="userSpaceOnUse">
<stop offset="0.5" stop-color="#FB8C00"/>
<stop offset="0.5" stop-color="#FFA533"/>
</linearGradient>
<clipPath id="clip0_4508_33">
<rect width="16" height="16" fill="white" transform="translate(10 4)"/>
</clipPath>
</defs>
</svg>
