<svg width="36" height="48" viewBox="0 0 36 48" fill="none" xmlns="http://www.w3.org/2000/svg">
<path d="M0 0H36V38L18 48L0 38V0Z" fill="url(#paint0_linear_4509_166)"/>
<path d="M10.616 23.968H11.54V29.008C11.54 29.504 11.504 29.992 11.432 30.472C11.368 30.944 11.236 31.4 11.036 31.84C10.836 32.28 10.536 32.692 10.136 33.076C9.744 33.46 9.22 33.812 8.564 34.132C7.908 34.452 7.092 34.728 6.116 34.96C6.076 34.888 6.024 34.804 5.96 34.708C5.904 34.612 5.84 34.512 5.768 34.408C5.704 34.304 5.64 34.22 5.576 34.156C6.52 33.956 7.3 33.72 7.916 33.448C8.54 33.176 9.032 32.872 9.392 32.536C9.76 32.2 10.028 31.844 10.196 31.468C10.372 31.084 10.484 30.688 10.532 30.28C10.588 29.864 10.616 29.44 10.616 29.008V23.968ZM7.412 26.692V28.924H14.756V26.692H7.412ZM6.536 25.816H15.668V29.788H6.536V25.816ZM7.904 30.196C8.272 30.94 8.716 31.552 9.236 32.032C9.764 32.512 10.38 32.888 11.084 33.16C11.796 33.432 12.608 33.632 13.52 33.76C14.44 33.88 15.476 33.964 16.628 34.012C16.54 34.124 16.456 34.264 16.376 34.432C16.296 34.608 16.24 34.776 16.208 34.936C15.032 34.864 13.968 34.744 13.016 34.576C12.064 34.416 11.212 34.176 10.46 33.856C9.716 33.536 9.064 33.108 8.504 32.572C7.952 32.028 7.48 31.336 7.088 30.496L7.904 30.196ZM25.28 25.336H31.064V26.152H25.28V25.336ZM24.728 27.64H31.52V28.48H24.728V27.64ZM24.8 29.788H31.364V30.604H24.8V29.788ZM27.656 23.908H28.556V28.048H27.656V23.908ZM29.12 28.408H30.008V33.904C30.008 34.152 29.972 34.344 29.9 34.48C29.836 34.624 29.712 34.732 29.528 34.804C29.344 34.868 29.096 34.904 28.784 34.912C28.48 34.928 28.096 34.936 27.632 34.936C27.616 34.816 27.576 34.676 27.512 34.516C27.448 34.364 27.384 34.228 27.32 34.108C27.68 34.116 28.004 34.12 28.292 34.12C28.588 34.12 28.784 34.116 28.88 34.108C28.976 34.108 29.04 34.092 29.072 34.06C29.104 34.028 29.12 33.968 29.12 33.88V28.408ZM25.544 31.348L26.276 31.036C26.444 31.236 26.608 31.456 26.768 31.696C26.936 31.936 27.088 32.172 27.224 32.404C27.368 32.636 27.476 32.844 27.548 33.028L26.768 33.376C26.696 33.192 26.596 32.984 26.468 32.752C26.34 32.512 26.196 32.272 26.036 32.032C25.876 31.784 25.712 31.556 25.544 31.348ZM20.936 27.628H24.344V28.336H20.936V27.628ZM20.984 24.34H24.308V25.06H20.984V24.34ZM20.936 29.26H24.344V29.98H20.936V29.26ZM20.396 25.948H24.656V26.704H20.396V25.948ZM21.344 30.916H24.356V34.42H21.344V33.676H23.576V31.66H21.344V30.916ZM20.924 30.916H21.692V34.924H20.924V30.916Z" fill="white"/>
<path d="M17.0287 4.63433C16.9598 4.59316 16.881 4.57143 16.8007 4.57143C16.7204 4.57143 16.6417 4.59316 16.5728 4.63433C16.5159 4.67936 16.4776 4.74368 16.465 4.8151C16.4524 4.88652 16.4664 4.96008 16.5044 5.02185C17.9063 7.4496 18.2027 10.755 16.2878 12.5786C15.5511 11.9595 14.9662 11.1797 14.5781 10.2991C13.87 10.6924 13.2832 11.2721 12.8813 11.9754C12.4794 12.6787 12.2779 13.4786 12.2986 14.2883C12.3275 15.0021 12.4989 15.703 12.8027 16.3496C13.1064 16.9962 13.5365 17.5754 14.0675 18.0534C14.5986 18.5313 15.2198 18.8982 15.8947 19.1325C16.5696 19.3666 17.2846 19.4635 17.9975 19.4174C21.6676 19.4174 23.5711 17.1378 23.6964 14.2883C23.8446 10.869 21.4169 6.66315 17.0287 4.63433Z" stroke="white" stroke-linecap="round" stroke-linejoin="round"/>
<defs>
<linearGradient id="paint0_linear_4509_166" x1="1" y1="21" x2="36" y2="21" gradientUnits="userSpaceOnUse">
<stop offset="0.5" stop-color="#AB47BC"/>
<stop offset="0.5" stop-color="#C158D2"/>
</linearGradient>
</defs>
</svg>
