<?xml version="1.0" encoding="UTF-8"?>
<svg width="24px" height="24px" viewBox="0 0 24 24" version="1.1" xmlns="http://www.w3.org/2000/svg" xmlns:xlink="http://www.w3.org/1999/xlink">
    <title>ic_scared</title>
    <g id="Icon" stroke="none" stroke-width="1" fill="none" fill-rule="evenodd">
        <g id="MM" transform="translate(-904.000000, -290.000000)">
            <g id="Dialog" transform="translate(848.000000, 236.000000)">
                <g id="ic_scared" transform="translate(56.000000, 54.000000)">
                    <rect id="Rectangle" x="0" y="0" width="24" height="24"></rect>
                    <g id="Group-4" transform="translate(0.275862, 0.275848)">
                        <path d="M4.61852778e-14,11.7566897 C4.61852778e-14,5.26358621 5.26372414,0 11.7566897,0 C18.2497931,0 23.5135172,5.26358621 23.5135172,11.7566897 C23.5135172,18.2497931 18.2497931,23.5133793 11.7566897,23.5133793 C5.26372414,23.5133793 4.61852778e-14,18.2497931 4.61852778e-14,11.7566897" id="Fill-1" fill="#FFC547"></path>
                        <path d="M11.7566897,5.68434189e-14 C16.5484751,5.68434189e-14 20.6707214,2.86663124 22.5019614,6.97853747 C22.5098545,7.1557425 22.513482,7.33413724 22.513482,7.51337931 C22.513482,14.6931508 16.693101,20.5133793 9.51332953,20.5133793 C6.60909269,20.5133793 3.9272671,19.561019 1.7631355,17.9515507 C0.645163523,16.1524219 0,14.0299054 0,11.7566897 C0,5.26358621 5.26372414,5.68434189e-14 11.7566897,5.68434189e-14 Z" id="Path" fill="#FFD153"></path>
                        <path d="M11.5000587,0.868003488 C13.8764029,0.868003488 16.0591442,1.69686774 17.7749418,3.08126478 C16.2782413,2.25989682 14.5594539,1.79283916 12.7315798,1.79283916 C6.93269087,1.79283916 2.23164144,6.49379298 2.23164144,12.2928392 C2.23164144,13.5805558 2.46344618,14.8141265 2.88760259,15.9541019 C2.0061855,14.4635261 1.50005866,12.724846 1.50005866,10.8679448 C1.50005866,5.3450761 5.97730726,0.868003488 11.5000587,0.868003488 Z" id="Path" fill="#FEDD8B"></path>
                    </g>
                    <path d="M11.980999,11.7316552 C13.3617109,11.7316552 14.480999,12.8509433 14.480999,14.2316552 L14.480999,16.4299862 C14.480999,17.8106981 13.3617109,18.9299862 11.980999,18.9299862 C10.6002871,18.9299862 9.48099899,17.8106981 9.48099899,16.4299862 L9.48099899,14.2316552 C9.48099899,12.8509433 10.6002871,11.7316552 11.980999,11.7316552 Z" id="Rectangle" fill="#694D3C"></path>
                    <path d="M12.0326207,16.5246563 C12.9709142,16.5246563 13.7884774,16.9381826 14.2160789,17.5498503 C13.8053219,18.3687436 12.9587031,18.9299862 11.980999,18.9299862 C11.0381129,18.9299862 10.2171418,18.4080057 9.79128991,17.6372488 C10.2001818,16.9779665 11.0502286,16.5246563 12.0326207,16.5246563 Z" id="Path" fill="#F56164"></path>
                    <path d="M17.2301379,9.18023448 C17.2301379,9.98657931 16.8422759,10.6403724 16.363931,10.6403724 C15.8854483,10.6403724 15.4975862,9.98657931 15.4975862,9.18023448 C15.4975862,8.37375172 15.8854483,7.72009655 16.363931,7.72009655 C16.8422759,7.72009655 17.2301379,8.37375172 17.2301379,9.18023448" id="Fill-11" fill="#222222"></path>
                    <path d="M8.56748966,9.18023448 C8.56748966,9.98657931 8.17962759,10.6403724 7.70128276,10.6403724 C7.2228,10.6403724 6.83493793,9.98657931 6.83493793,9.18023448 C6.83493793,8.37375172 7.2228,7.72009655 7.70128276,7.72009655 C8.17962759,7.72009655 8.56748966,8.37375172 8.56748966,9.18023448" id="Fill-9" fill="#222222"></path>
                </g>
            </g>
        </g>
    </g>
</svg>