<?xml version="1.0" encoding="UTF-8"?>
<svg width="24px" height="24px" viewBox="0 0 24 24" version="1.1" xmlns="http://www.w3.org/2000/svg" xmlns:xlink="http://www.w3.org/1999/xlink">
    <title>ic_sad</title>
    <g id="Icon" stroke="none" stroke-width="1" fill="none" fill-rule="evenodd">
        <g id="MM" transform="translate(-944.000000, -290.000000)">
            <g id="Dialog" transform="translate(848.000000, 236.000000)">
                <g id="ic_sad" transform="translate(96.000000, 54.000000)">
                    <rect id="Rectangle" x="0" y="0" width="24" height="24"></rect>
                    <g id="Group-2" transform="translate(0.275862, 0.275848)">
                        <g id="Group-4">
                            <path d="M4.61852778e-14,11.7566897 C4.61852778e-14,5.26358621 5.26372414,0 11.7566897,0 C18.2497931,0 23.5135172,5.26358621 23.5135172,11.7566897 C23.5135172,18.2497931 18.2497931,23.5133793 11.7566897,23.5133793 C5.26372414,23.5133793 4.61852778e-14,18.2497931 4.61852778e-14,11.7566897" id="Fill-1" fill="#FFC547"></path>
                            <path d="M11.7566897,5.68434189e-14 C16.5484751,5.68434189e-14 20.6707214,2.86663124 22.5019614,6.97853747 C22.5098545,7.1557425 22.513482,7.33413724 22.513482,7.51337931 C22.513482,14.6931508 16.693101,20.5133793 9.51332953,20.5133793 C6.60909269,20.5133793 3.9272671,19.561019 1.7631355,17.9515507 C0.645163523,16.1524219 0,14.0299054 0,11.7566897 C0,5.26358621 5.26372414,5.68434189e-14 11.7566897,5.68434189e-14 Z" id="Path" fill="#FFD153"></path>
                            <path d="M11.5000587,0.868003488 C13.8764029,0.868003488 16.0591442,1.69686774 17.7749418,3.08126478 C16.2782413,2.25989682 14.5594539,1.79283916 12.7315798,1.79283916 C6.93269087,1.79283916 2.23164144,6.49379298 2.23164144,12.2928392 C2.23164144,13.5805558 2.46344618,14.8141265 2.88760259,15.9541019 C2.0061855,14.4635261 1.50005866,12.724846 1.50005866,10.8679448 C1.50005866,5.3450761 5.97730726,0.868003488 11.5000587,0.868003488 Z" id="Path" fill="#FEDD8B"></path>
                        </g>
                        <path d="M14.2387172,13.5394207 C13.5697517,12.9598345 12.663131,12.6330759 11.7562345,12.6503172 C10.8645103,12.6537655 9.96602759,12.9792828 9.29030345,13.5445241 C8.94933793,13.8332138 8.66464828,14.1852138 8.46547586,14.5650759 C8.25582069,14.9780414 8.14726897,15.3939034 8.14284054,15.8010759 C8.14175172,15.8985931 8.20313103,15.9857655 8.29513103,16.0177655 C8.3874069,16.0497655 8.48947586,16.0192828 8.54906207,15.9421793 C8.79251034,15.6272828 9.02354483,15.3769379 9.25402759,15.1783172 C9.50230345,14.9678345 9.76630345,14.7918345 10.0380276,14.6551448 C10.5795448,14.3843862 11.1774759,14.2399724 11.7678207,14.2374897 C12.3737517,14.2328 12.9476828,14.3690759 13.4767862,14.6439724 C14.0218897,14.9231448 14.5220276,15.3594207 14.963131,15.9406621 C15.0068552,15.9983172 15.0743034,16.0303371 15.1438207,16.0303371 C15.1686483,16.0303371 15.1934759,16.0263172 15.2177517,16.0179034 C15.3105793,15.9859034 15.3720966,15.8980414 15.3706068,15.8001103 C15.3580276,14.9801103 14.9344414,14.1345931 14.2387172,13.5394207" id="Fill-17" fill="#694D3C"></path>
                        <path d="M8.29165517,8.90438621 C8.29165517,9.71073103 7.9037931,10.3645241 7.42544828,10.3645241 C6.94696552,10.3645241 6.55910345,9.71073103 6.55910345,8.90438621 C6.55910345,8.09790345 6.94696552,7.44424828 7.42544828,7.44424828 C7.9037931,7.44424828 8.29165517,8.09790345 8.29165517,8.90438621" id="Fill-9" fill="#222222"></path>
                        <path d="M16.9543034,8.90438621 C16.9543034,9.71073103 16.5664414,10.3645241 16.0880966,10.3645241 C15.6096138,10.3645241 15.2217517,9.71073103 15.2217517,8.90438621 C15.2217517,8.09790345 15.6096138,7.44424828 16.0880966,7.44424828 C16.5664414,7.44424828 16.9543034,8.09790345 16.9543034,8.90438621" id="Fill-11" fill="#222222"></path>
                        <path d="M14.2443796,5.54904839 L18.2443796,5.54904839 C18.5205219,5.54904839 18.7443796,5.77290602 18.7443796,6.04904839 C18.7443796,6.32519077 18.5205219,6.54904839 18.2443796,6.54904839 L14.2443796,6.54904839 C13.9682372,6.54904839 13.7443796,6.32519077 13.7443796,6.04904839 C13.7443796,5.77290602 13.9682372,5.54904839 14.2443796,5.54904839 Z" id="Rectangle" fill="#222222" transform="translate(16.244380, 6.049048) rotate(20.000000) translate(-16.244380, -6.049048) "></path>
                        <path d="M5.24437955,5.54904839 L9.24437955,5.54904839 C9.52052193,5.54904839 9.74437955,5.77290602 9.74437955,6.04904839 C9.74437955,6.32519077 9.52052193,6.54904839 9.24437955,6.54904839 L5.24437955,6.54904839 C4.96823718,6.54904839 4.74437955,6.32519077 4.74437955,6.04904839 C4.74437955,5.77290602 4.96823718,5.54904839 5.24437955,5.54904839 Z" id="Rectangle" fill="#222222" transform="translate(7.244380, 6.049048) rotate(-20.000000) translate(-7.244380, -6.049048) "></path>
                        <path d="M16.0880276,10.9451572 L18.7889066,14.5096411 C19.350743,15.3608972 19.8552391,16.1730117 19.8552391,17.1928111 C19.8552391,19.2651746 18.1752566,20.9451572 16.1028931,20.9451572 C14.0305295,20.9451572 12.350547,19.2651746 12.350547,17.1928111 C12.350547,16.1761971 12.8804547,15.3417064 13.4120802,14.5162801 L16.0880276,10.9451572 Z" id="Path" fill="#52CFF4"></path>
                        <path d="M19.8552391,17.1928111 C19.8552391,19.2651746 18.1752566,20.9451572 16.1028931,20.9451572 C15.1001365,20.9451572 14.1892486,20.551821 13.5161006,19.91102 L13.6291314,19.9314391 C13.9127784,19.9765622 14.2036521,20 14.5,20 C17.0912445,20 19.0232715,18.2080335 19.5350883,15.7957273 C19.7303669,16.2294912 19.8552391,16.6854482 19.8552391,17.1928111 Z" id="Combined-Shape" fill="#3BB7DB"></path>
                    </g>
                </g>
            </g>
        </g>
    </g>
</svg>