<?xml version="1.0" encoding="UTF-8"?>
<svg width="24px" height="24px" viewBox="0 0 24 24" version="1.1" xmlns="http://www.w3.org/2000/svg" xmlns:xlink="http://www.w3.org/1999/xlink">
    <title>ic_like</title>
    <defs>
        <path d="M4.85911364,10 C5.48920778,10 6,10.5950819 6,11.3300595 L6,20.6699405 C6,21.4045121 5.48933432,22 4.85911364,22 L3.14088636,22 C2.51079222,22 2,21.4049181 2,20.6699405 L2,11.3300595 C2,10.5954879 2.51066568,10 3.14088636,10 L4.85911364,10 Z M9.39895008,22 C8.62633129,22 8,21.3645736 8,20.5797669 L8,10.2568783 C8,9.97061035 8.10951831,9.71058842 8.28872986,9.51851716 L8.38215273,9.4002629 L8.49322721,9.26706141 C8.51312498,9.24367739 8.53369403,9.21971694 8.55490224,9.19520325 L8.68956471,9.04166771 L8.83802621,8.87596732 L9.25943773,8.41579896 L10.1341831,7.46893743 L10.439318,7.13363327 L10.6420114,6.9078756 L10.842323,6.68163914 L11.0387118,6.45603684 L11.2296368,6.23218165 L11.4135568,6.01118653 C12.0132366,5.28053956 12.4704844,4.61610974 12.5284617,4.20338983 L12.5524176,4.04069491 L12.5944154,3.78485075 L12.6264621,3.60821995 L12.6617517,3.42817461 L12.7002879,3.2459489 L12.7420746,3.06277698 C12.7493101,3.03223805 12.7566813,3.00171111 12.764188,2.97122188 L12.8108575,2.78894474 L12.8607867,2.60880684 L12.9139796,2.43204234 C13.1515589,1.6751546 13.1842415,0.999999999 14.1872764,0.999999999 C15.1903114,0.999999999 16.090673,1.80522109 16.190659,2.81020701 L16.1988243,2.90422054 L16.2188865,3.09660717 L16.2395237,3.3671374 L16.2489699,3.53788453 L16.2585435,3.7983029 L16.2614073,3.94135128 L16.2626169,4.09224869 L16.260719,4.33214617 L16.2535291,4.58670677 L16.2453304,4.76367196 L16.2340819,4.94582202 L16.2195044,5.13262411 C16.2167818,5.16411586 16.213909,5.19577925 16.2108799,5.22760316 L16.1907854,5.42038424 L16.1666639,5.61648526 L16.1382364,5.8153734 C16.1280119,5.88207477 16.1170232,5.94915185 16.1052237,6.01651583 L16.0673466,6.21937971 C16.0538792,6.28722871 16.0395545,6.35527581 16.0243261,6.42343221 L15.9758829,6.62814049 C15.8278344,7.21995413 15.3035757,8.07272086 14.4031067,9.18644068 L19.55,9.18644068 C19.6076347,9.18854502 19.6660555,9.18644068 19.725,9.18644068 C20.9814478,9.18644068 22,9.97205487 22,11.3220339 C22,12.1176471 21.3700035,12.5344514 20.8250732,12.9246144 C21.3639385,13.2397282 22,13.6864947 22,14.5254237 C22,15.3643527 21.1289142,15.9761328 20.3812714,16.2204536 C20.9405134,16.5312052 21.65,16.8284499 21.65,17.7288136 C21.65,18.6291772 20.7536366,19.2097922 19.9731089,19.436825 C20.3650985,19.6951464 20.95,19.9745142 20.95,20.5762712 C20.95,21.4218983 20.3375872,21.9125245 19.5501849,21.9912922 L19.55,22 L9.39895008,22 Z" id="path-1"></path>
    </defs>
    <g id="Icon" stroke="none" stroke-width="1" fill="none" fill-rule="evenodd">
        <g id="MM" transform="translate(-864.000000, -290.000000)">
            <g id="Dialog" transform="translate(848.000000, 236.000000)">
                <g id="ic_like" transform="translate(16.000000, 54.000000)">
                    <rect id="Rectangle" x="0" y="0" width="24" height="24"></rect>
                    <mask id="mask-2" fill="white">
                        <use xlink:href="#path-1"></use>
                    </mask>
                    <use id="Mask" fill="#FFC547" xlink:href="#path-1"></use>
                    <polygon id="Path-5" fill="#FFD87A" mask="url(#mask-2)" points="2.00085449 16 23.2104492 12.5 23.2104492 -1.08911991e-09 2.00085449 -1.08911991e-09"></polygon>
                    <path d="M7.00085449,18.8375244 C8.10811361,20.2791748 9.0662028,21 9.87512207,21 C10.6840413,21 14.392334,21 21,21 L21,22.6204834 L7.00085449,22.6204834 L7.00085449,18.8375244 Z" id="Path-7" fill="#F3BB42" mask="url(#mask-2)"></path>
                    <rect id="Rectangle" fill="#F3BB42" mask="url(#mask-2)" x="2" y="21" width="4" height="1"></rect>
                </g>
            </g>
        </g>
    </g>
</svg>