<?xml version="1.0" encoding="UTF-8"?>
<svg width="24px" height="24px" viewBox="0 0 24 24" version="1.1" xmlns="http://www.w3.org/2000/svg" xmlns:xlink="http://www.w3.org/1999/xlink">
    <title>ic_join</title>
    <defs>
        <path d="M4.40070217,0 C4.95298692,-1.01453063e-16 5.40070217,0.44771525 5.40070217,1 L5.4,3.086 L7.4868177,3.08611553 C8.03910245,3.08611553 8.4868177,3.53383078 8.4868177,4.08611553 L8.4868177,4.40070217 C8.4868177,4.95298692 8.03910245,5.40070217 7.4868177,5.40070217 L5.4,5.4 L5.40070217,7.4868177 C5.40070217,8.03910245 4.95298692,8.4868177 4.40070217,8.4868177 L4.08611553,8.4868177 C3.53383078,8.4868177 3.08611553,8.03910245 3.08611553,7.4868177 L3.086,5.4 L1,5.40070217 C0.44771525,5.40070217 6.76353751e-17,4.95298692 0,4.40070217 L0,4.08611553 C-6.76353751e-17,3.53383078 0.44771525,3.08611553 1,3.08611553 L3.086,3.086 L3.08611553,1 C3.08611553,0.44771525 3.53383078,1.01453063e-16 4.08611553,0 L4.40070217,0 Z" id="path-1"></path>
        <path d="M1,0 L2.85764441,0 C3.40992916,-1.01453063e-16 3.85764441,0.44771525 3.85764441,1 L3.85764441,12.4305776 C3.85764441,12.9828624 3.40992916,13.4305776 2.85764441,13.4305776 L1,13.4305776 C0.44771525,13.4305776 1.04869017e-15,12.9828624 0,12.4305776 L0,1 C-6.76353751e-17,0.44771525 0.44771525,1.01453063e-16 1,0 Z" id="path-3"></path>
    </defs>
    <g id="221017-web" stroke="none" stroke-width="1" fill="none" fill-rule="evenodd">
        <g id="-表情回應10_回應" transform="translate(-636.000000, -226.000000)">
            <g id="right" transform="translate(260.000000, 0.000000)"></g>
            <g id="popup" transform="translate(576.000000, 166.000000)">
                <g id="ic_join" transform="translate(60.000000, 60.000000)">
                    <rect id="Rectangle" x="0" y="0" width="24" height="24"></rect>
                    <g id="Group-4" transform="translate(0.275862, 0.275848)">
                        <path d="M4.61852778e-14,11.7566897 C4.61852778e-14,5.26358621 5.26372414,0 11.7566897,0 C18.2497931,0 23.5135172,5.26358621 23.5135172,11.7566897 C23.5135172,18.2497931 18.2497931,23.5133793 11.7566897,23.5133793 C5.26372414,23.5133793 4.61852778e-14,18.2497931 4.61852778e-14,11.7566897" id="Fill-1" fill="#FFC547"></path>
                        <path d="M11.7566897,5.68434189e-14 C16.5484751,5.68434189e-14 20.6707214,2.86663124 22.5019614,6.97853747 C22.5098545,7.1557425 22.513482,7.33413724 22.513482,7.51337931 C22.513482,14.6931508 16.693101,20.5133793 9.51332953,20.5133793 C6.60909269,20.5133793 3.9272671,19.561019 1.7631355,17.9515507 C0.645163523,16.1524219 0,14.0299054 0,11.7566897 C0,5.26358621 5.26372414,5.68434189e-14 11.7566897,5.68434189e-14 Z" id="Path" fill="#FFD153"></path>
                        <path d="M11.5000587,0.868003488 C13.8764029,0.868003488 16.0591442,1.69686774 17.7749418,3.08126478 C16.2782413,2.25989682 14.5594539,1.79283916 12.7315798,1.79283916 C6.93269087,1.79283916 2.23164144,6.49379298 2.23164144,12.2928392 C2.23164144,13.5805558 2.46344618,14.8141265 2.88760259,15.9541019 C2.0061855,14.4635261 1.50005866,12.724846 1.50005866,10.8679448 C1.50005866,5.3450761 5.97730726,0.868003488 11.5000587,0.868003488 Z" id="Path" fill="#FEDD8B"></path>
                    </g>
                    <g id="Group-7" transform="translate(3.000000, 4.739513)">
                        <g id="Group-10" transform="translate(0.000000, 1.719234)">
                            <path d="M4.78646662,0.154305776 C5.33875136,0.154305776 5.78646662,0.602021026 5.78646662,1.15430578 L5.78576444,3.24030578 L7.87258214,3.2404213 C8.42486689,3.2404213 8.87258214,3.68813655 8.87258214,4.2404213 L8.87258214,4.55500795 C8.87258214,5.1072927 8.42486689,5.55500795 7.87258214,5.55500795 L5.78576444,5.55430578 L5.78646662,7.64112348 C5.78646662,8.19340823 5.33875136,8.64112348 4.78646662,8.64112348 L4.47187997,8.64112348 C3.91959522,8.64112348 3.47187997,8.19340823 3.47187997,7.64112348 L3.47176444,5.55430578 L1.38576444,5.55500795 C0.833479691,5.55500795 0.385764441,5.1072927 0.385764441,4.55500795 L0.385764441,4.2404213 C0.385764441,3.68813655 0.833479691,3.2404213 1.38576444,3.2404213 L3.47176444,3.24030578 L3.47187997,1.15430578 C3.47187997,0.602021026 3.91959522,0.154305776 4.47187997,0.154305776 L4.78646662,0.154305776 Z" id="Combined-Shape" fill="#F3BB42"></path>
                            <mask id="mask-2" fill="white">
                                <use xlink:href="#path-1"></use>
                            </mask>
                            <use id="Combined-Shape" fill="#FFFFFF" xlink:href="#path-1"></use>
                        </g>
                        <g id="Group-11" transform="translate(12.887520, 6.891465) rotate(5.000000) translate(-12.887520, -6.891465) translate(10.572933, 0.176176)">
                            <path d="M1.77152888,0 L3.62917329,0 C4.18145804,-1.01453063e-16 4.62917329,0.44771525 4.62917329,1 L4.62917329,12.4305776 C4.62917329,12.9828624 4.18145804,13.4305776 3.62917329,13.4305776 L1.77152888,13.4305776 C1.21924413,13.4305776 0.771528882,12.9828624 0.771528882,12.4305776 L0.771528882,1 C0.771528882,0.44771525 1.21924413,1.01453063e-16 1.77152888,0 Z" id="Rectangle" fill="#F3BB42"></path>
                            <mask id="mask-4" fill="white">
                                <use xlink:href="#path-3"></use>
                            </mask>
                            <use id="Rectangle" fill="#FFFFFF" xlink:href="#path-3"></use>
                        </g>
                    </g>
                </g>
            </g>
        </g>
    </g>
</svg>