<svg width="24" height="24" viewBox="0 0 24 24" fill="none" xmlns="http://www.w3.org/2000/svg">
<path d="M13.826 0.483946C13.5023 0.176781 13.0617 0.00271053 12.6011 2.90729e-05C12.1405 -0.00265239 11.6977 0.166274 11.37 0.469647C11.0422 0.77302 10.8565 1.18599 10.8537 1.6177C10.8508 2.04942 11.0204 2.43738 11.3547 2.77168C13.0262 4.61036 15.0908 9.0797 15.8621 11.3259C14.8522 10.4043 13.5585 9.80397 12.1643 9.61012C11.134 9.44393 10.0778 9.48388 9.06505 9.72735C8.05234 9.97081 7.10601 10.4123 6.28821 11.0228C6.06307 11.2107 5.89392 11.4502 5.79733 11.7179C5.70075 11.9856 5.68006 12.2722 5.73728 12.5496C5.79451 12.827 5.92769 13.0857 6.12375 13.3003C6.31982 13.515 6.57205 13.6781 6.85568 13.7738C7.17187 13.887 7.51426 13.9201 7.84844 13.8699C8.18263 13.8197 8.49683 13.6879 8.75947 13.4879C9.20278 13.2099 9.70305 13.0215 10.2284 12.9349C10.7537 12.8482 11.2925 12.8651 11.8104 12.9846C12.6406 13.1552 13.3645 13.628 13.8228 14.2989C14.2811 14.9698 14.4363 15.7839 14.2542 16.562C14.0721 17.3402 13.5677 18.0186 12.852 18.4482C12.1362 18.8778 11.2677 19.0233 10.4375 18.8526C9.71495 18.6987 9.05924 18.343 8.55699 17.8324C8.05474 17.3218 7.72959 16.6804 7.62452 15.9929C7.61045 15.5995 7.45618 15.2218 7.18631 14.9201C6.91645 14.6184 6.54655 14.4102 6.13566 14.3286C5.89161 14.2612 5.63434 14.2471 5.38358 14.2874C5.13282 14.3277 4.89524 14.4212 4.68905 14.5609C4.48287 14.7006 4.31356 14.8828 4.19411 15.0933C4.07467 15.3039 4.00827 15.5373 4 15.7756C4 19.8421 7.5818 24.6577 13.1528 23.9256C16.8018 23.1964 18.974 21.6302 20.0052 16.5649C20.3774 12.4584 17.9081 4.41886 13.826 0.483946Z" fill="#FFC547"/>
<path fill-rule="evenodd" clip-rule="evenodd" d="M19.8877 13.6217C19.3003 9.34264 17.0735 3.61438 13.826 0.483948C13.5023 0.176783 13.0617 0.0027129 12.6011 3.1442e-05C12.1405 -0.00265002 11.6977 0.166277 11.37 0.46965C11.0422 0.773023 10.8565 1.18599 10.8537 1.61771C10.8508 2.04942 11.0204 2.43738 11.3547 2.77169C13.0262 4.61036 15.0908 9.07971 15.8621 11.3259C14.8522 10.4043 13.5585 9.80397 12.1643 9.61013C11.134 9.44393 10.0778 9.48388 9.06505 9.72735C8.05234 9.97082 7.10601 10.4123 6.28821 11.0228C6.06307 11.2107 5.89392 11.4502 5.79733 11.7179C5.70075 11.9856 5.68006 12.2722 5.73728 12.5496C5.79451 12.827 5.92769 13.0857 6.12375 13.3003C6.31982 13.515 6.57205 13.6781 6.85568 13.7738C7.17187 13.887 7.51426 13.9201 7.84844 13.8699C8.18263 13.8197 8.49683 13.6879 8.75947 13.4879C9.20278 13.2099 9.70305 13.0215 10.2284 12.9349C10.7537 12.8482 11.2925 12.8651 11.8104 12.9846C12.6406 13.1552 13.3645 13.628 13.8228 14.2989C14.0959 14.6987 14.2614 15.1494 14.312 15.613L19.8877 13.6217ZM8.44177 17.7095L4.72032 19.0386C4.24989 17.976 4 16.8497 4 15.7756C4.00827 15.5373 4.07467 15.3039 4.19411 15.0933C4.31356 14.8828 4.48287 14.7007 4.68905 14.561C4.89524 14.4213 5.13282 14.3277 5.38358 14.2874C5.63434 14.2471 5.89161 14.2612 6.13566 14.3286C6.54655 14.4102 6.91645 14.6184 7.18631 14.9201C7.45618 15.2218 7.61045 15.5995 7.62452 15.9929C7.72133 16.6263 8.00495 17.2206 8.44177 17.7095Z" fill="#FFD87A"/>
<path fill-rule="evenodd" clip-rule="evenodd" d="M12.5955 18.5869C14.7633 18.1187 15.0227 15.9114 14.8649 14.8067C14.33 12.3997 11.9676 11.9093 10.8532 11.9651C8.93629 11.9651 7.86021 13.1279 7.45667 13.8908C7.58714 13.8963 7.71839 13.8894 7.84841 13.8699C8.18259 13.8197 8.49679 13.6879 8.75943 13.4879C9.20275 13.2099 9.70301 13.0215 10.2283 12.9349C10.7536 12.8482 11.2924 12.8651 11.8104 12.9846C12.6406 13.1552 13.3644 13.628 13.8227 14.2989C14.281 14.9698 14.4362 15.7839 14.2542 16.562C14.0721 17.3402 13.5677 18.0187 12.8519 18.4482C12.7684 18.4983 12.6829 18.5446 12.5955 18.5869Z" fill="#FFC547"/>
<path d="M12.1905 9.62492C13.7162 9.88612 14.5986 10.3099 15.8716 11.3932C15.1992 8.95631 13.4636 5.43804 12.29 4.14202C12.1496 3.97593 11.9741 3.84315 11.7761 3.75327C11.5781 3.6634 11.3625 3.61868 11.1451 3.62237C10.9277 3.62606 10.7138 3.67806 10.519 3.7746C10.3241 3.87114 10.1532 4.00981 10.0185 4.18056C9.81218 4.44631 9.70399 4.77517 9.71223 5.11152C9.72048 5.44786 9.89816 5.78043 10.0638 6.02635C10.6861 6.95049 11.7057 8.77801 12.1905 9.62492Z" fill="#F6CE6D"/>
<path fill-rule="evenodd" clip-rule="evenodd" d="M11.1264 3.93986C11.9552 4.93766 13.5842 6.899 14.0291 9.12348C13.6131 9.12348 12.7599 9.30755 12.1758 9.59935C12.1807 9.60797 12.1856 9.61649 12.1904 9.62492C13.7162 9.88612 14.5985 10.3099 15.8715 11.3932C15.1992 8.95631 13.4635 5.43804 12.2899 4.14202C12.1496 3.97593 11.974 3.84315 11.776 3.75327C11.578 3.6634 11.3625 3.61868 11.145 3.62237C11.0582 3.62385 10.9719 3.63303 10.8872 3.64967C10.9558 3.73443 11.0364 3.83146 11.1264 3.93986Z" fill="#E9BC50"/>
</svg>
