<?xml version="1.0" encoding="UTF-8"?>
<svg width="24px" height="24px" viewBox="0 0 24 24" version="1.1" xmlns="http://www.w3.org/2000/svg" xmlns:xlink="http://www.w3.org/1999/xlink">
    <title>ic_checked</title>
    <defs>
        <path d="M10.0725786,19.6061773 C9.54033582,20.1312742 8.67739984,20.1312742 8.14515711,19.6061773 L1.39918205,12.9507722 C0.866939313,12.4256752 0.866939313,11.5743248 1.39918205,11.0492278 L2.36289277,10.0984557 C2.89513551,9.57335872 3.75807148,9.57335872 4.29031422,10.0984557 L9.10983154,14.8513657 L19.7096858,4.39382272 C20.2419285,3.86872576 21.1048645,3.86872576 21.6371072,4.39382272 L22.6008179,5.34459488 C23.1330607,5.86969185 23.1330607,6.72104224 22.6008179,7.2461392 L10.0725786,19.6061773 Z" id="path-1"></path>
    </defs>
    <g id="Icon" stroke="none" stroke-width="1" fill="none" fill-rule="evenodd">
        <g id="MM" transform="translate(-1024.000000, -290.000000)">
            <g id="Dialog" transform="translate(848.000000, 236.000000)">
                <g id="ic_checked" transform="translate(176.000000, 54.000000)">
                    <rect id="Rectangle" x="0" y="0" width="24" height="24"></rect>
                    <path d="M21.6733965,5.5 C21.894954,5.5 22.1167989,5.58287607 22.2859513,5.74975739 L22.2859513,5.74975739 L23.249662,6.70052955 C23.4161571,6.86478939 23.5,7.07992503 23.5,7.29536704 C23.5,7.51080906 23.4161571,7.7259447 23.249662,7.89020454 L23.249662,7.89020454 L10.7214226,20.2502426 C10.4871768,20.4813435 10.1377966,20.7935549 9.69846292,20.7935549 C9.40336687,20.7935549 9.08788346,20.6321483 8.75392061,20.27191 L8.75392061,20.27191 L2.75987312,13.6041022 C2.58704416,13.438715 2.5,13.2195165 2.5,13 C2.5,12.784558 2.58384285,12.5694223 2.75033802,12.4051625 L2.75033802,12.4051625 L3.71404874,11.4543903 C3.88320106,11.287509 4.10504595,11.204633 4.32660349,11.204633 C4.54816103,11.204633 4.77000592,11.287509 4.93922944,11.4544606 L4.93922944,11.4544606 L10.1099018,16.5536725 L21.0608417,5.74975739 C21.2299941,5.58287607 21.451839,5.5 21.6733965,5.5 Z" id="Path" stroke="#F3BB42" fill="#F3BB42"></path>
                    <mask id="mask-2" fill="white">
                        <use xlink:href="#path-1"></use>
                    </mask>
                    <use id="Path" fill="#FFC547" xlink:href="#path-1"></use>
                    <polygon id="Path-5" fill="#FFD87A" mask="url(#mask-2)" points="7.99999998 12 29.2095947 8.5 29.2095947 -4 7.99999998 -4"></polygon>
                </g>
            </g>
        </g>
    </g>
</svg>