<?xml version="1.0" encoding="UTF-8"?>
<svg width="30px" height="24px" viewBox="0 0 30 24" version="1.1" xmlns="http://www.w3.org/2000/svg" xmlns:xlink="http://www.w3.org/1999/xlink">
    <title>ic_understand</title>
    <g id="Icon" stroke="none" stroke-width="1" fill="none" fill-rule="evenodd">
        <g id="MM" transform="translate(-978.000000, -290.000000)">
            <g id="Dialog" transform="translate(848.000000, 236.000000)">
                <g id="ic_understand" transform="translate(130.250789, 54.000000)">
                    <g id="Group-5" transform="translate(5.749211, 0.000000)">
                        <rect id="Rectangle" x="0" y="0" width="24" height="24"></rect>
                        <g id="Group-4" transform="translate(0.275862, 0.275848)">
                            <path d="M4.61852778e-14,11.7566897 C4.61852778e-14,5.26358621 5.26372414,0 11.7566897,0 C18.2497931,0 23.5135172,5.26358621 23.5135172,11.7566897 C23.5135172,18.2497931 18.2497931,23.5133793 11.7566897,23.5133793 C5.26372414,23.5133793 4.61852778e-14,18.2497931 4.61852778e-14,11.7566897" id="Fill-1" fill="#FFC547"></path>
                            <path d="M11.7566897,5.68434189e-14 C16.5484751,5.68434189e-14 20.6707214,2.86663124 22.5019614,6.97853747 C22.5098545,7.1557425 22.513482,7.33413724 22.513482,7.51337931 C22.513482,14.6931508 16.693101,20.5133793 9.51332953,20.5133793 C6.60909269,20.5133793 3.9272671,19.561019 1.7631355,17.9515507 C0.645163523,16.1524219 0,14.0299054 0,11.7566897 C0,5.26358621 5.26372414,5.68434189e-14 11.7566897,5.68434189e-14 Z" id="Path" fill="#FFD153"></path>
                            <path d="M11.5000587,0.868003488 C13.8764029,0.868003488 16.0591442,1.69686774 17.7749418,3.08126478 C16.2782413,2.25989682 14.5594539,1.79283916 12.7315798,1.79283916 C6.93269087,1.79283916 2.23164144,6.49379298 2.23164144,12.2928392 C2.23164144,13.5805558 2.46344618,14.8141265 2.88760259,15.9541019 C2.0061855,14.4635261 1.50005866,12.724846 1.50005866,10.8679448 C1.50005866,5.3450761 5.97730726,0.868003488 11.5000587,0.868003488 Z" id="Path" fill="#FEDD8B"></path>
                        </g>
                        <path d="M8.56748966,9.18023448 C8.56748966,9.98657931 8.17962759,10.6403724 7.70128276,10.6403724 C7.2228,10.6403724 6.83493793,9.98657931 6.83493793,9.18023448 C6.83493793,8.37375172 7.2228,7.72009655 7.70128276,7.72009655 C8.17962759,7.72009655 8.56748966,8.37375172 8.56748966,9.18023448" id="Fill-9" fill="#222222"></path>
                        <path d="M17.2301379,9.18023448 C17.2301379,9.98657931 16.8422759,10.6403724 16.363931,10.6403724 C15.8854483,10.6403724 15.4975862,9.98657931 15.4975862,9.18023448 C15.4975862,8.37375172 15.8854483,7.72009655 16.363931,7.72009655 C16.8422759,7.72009655 17.2301379,8.37375172 17.2301379,9.18023448" id="Fill-11" fill="#222222"></path>
                        <path d="M6,14 C10.4859974,16.640935 13.7787857,16.6922748 18,14" id="Path-2" stroke="#694D3C"></path>
                        <path d="M5.5,6 L9.5,6 C9.77614237,6 10,6.22385763 10,6.5 C10,6.77614237 9.77614237,7 9.5,7 L5.5,7 C5.22385763,7 5,6.77614237 5,6.5 C5,6.22385763 5.22385763,6 5.5,6 Z" id="Rectangle" fill="#222222" transform="translate(7.500000, 6.500000) rotate(20.000000) translate(-7.500000, -6.500000) "></path>
                        <path d="M14.5,6 L18.5,6 C18.7761424,6 19,6.22385763 19,6.5 C19,6.77614237 18.7761424,7 18.5,7 L14.5,7 C14.2238576,7 14,6.77614237 14,6.5 C14,6.22385763 14.2238576,6 14.5,6 Z" id="Rectangle" fill="#222222" transform="translate(16.500000, 6.500000) rotate(-20.000000) translate(-16.500000, -6.500000) "></path>
                    </g>
                    <g id="Group-6">
                        <path d="M0.844690508,8.6946081 C1.75041769,5.86320736 3.29856765,4.35796484 5.48914039,4.17888052 C7.67971313,3.9997962 9.88960362,3.23026064 12.1188119,1.87027386 C13.0907066,1 13.89668,0.782431536 14.5367321,1.21756846 C15.1767843,1.65270539 14.3708109,2.93355904 12.1188119,5.06012941 L7.79695083,7.97641049 C5.96367072,9.99213683 4.25910694,11 2.68325951,11 C1.10741208,11 0.494555745,10.231536 0.844690508,8.6946081 Z" id="Combined-Shape" stroke="#ECB53D" fill="#ECB53D"></path>
                        <path d="M0.0954793499,7.6946081 C0.969974559,4.96084187 2.44335141,3.46335155 4.5156099,3.20213713 L4.73992923,3.17888052 C6.93050197,2.9997962 9.14039246,2.23026064 11.3696007,0.870273857 C12.3414954,0 13.1474688,-0.217568464 13.787521,0.217568464 C14.2623984,0.540411992 13.9412846,1.32879573 12.8241796,2.58271969 L12.5147044,2.92039074 C12.4601158,2.97842933 12.4040225,3.03734795 12.3464245,3.09714661 L11.9827797,3.46649904 L11.9827797,3.46649904 L11.583022,3.85697239 C11.5133863,3.92381136 11.4422458,3.99153036 11.3696007,4.06012941 L7.04773967,6.97641049 C5.21445956,8.99213683 3.50989578,10 1.93404835,10 C0.358200922,10 -0.254655413,9.23153603 0.0954793499,7.6946081 Z" id="Path" fill="#FFD153"></path>
                    </g>
                </g>
            </g>
        </g>
    </g>
</svg>