<svg version="1.1" id="Layer_1" xmlns="http://www.w3.org/2000/svg" xmlns:xlink="http://www.w3.org/1999/xlink" x="0px" y="0px"
	 width="100%" viewBox="0 0 500 500" enable-background="new 0 0 500 500" xml:space="preserve">
<path fill="#EE3236" opacity="1.000000" stroke="none" 
	d="
M465.830933,216.070343 
	C462.408386,226.616241 459.680328,237.456894 455.365051,247.623871 
	C451.174347,257.497284 445.988037,267.096558 440.083954,276.055023 
	C433.365326,286.249390 425.459259,295.673004 417.888397,305.289185 
	C413.817657,310.459656 409.392242,315.352936 405.073883,320.325287 
	C403.805603,321.785553 402.355774,323.088165 400.540070,324.767120 
	C399.373138,326.016632 398.655334,326.962097 397.937500,327.907562 
	C397.937500,327.907562 397.971161,327.997833 397.573578,327.972809 
	C395.445343,329.950836 393.714661,331.953888 391.983978,333.956940 
	C391.983978,333.956940 392.001282,334.003998 391.751221,334.086609 
	C391.219543,334.366821 391.055817,334.636108 391.009979,334.977081 
	C391.009979,334.977081 391.008820,335.007599 390.684967,335.020447 
	C389.881439,335.618042 389.401794,336.202789 388.922119,336.787506 
	C388.922119,336.787506 388.849915,336.973724 388.606018,337.060791 
	C388.180847,337.289581 388.047729,337.467377 387.962677,337.681183 
	C387.962677,337.681183 387.964813,337.872498 387.683350,338.015686 
	C387.165588,338.355103 387.015045,338.603363 386.950226,338.903656 
	C386.950226,338.903656 386.994263,338.977844 386.646118,339.001434 
	C385.979553,339.483673 385.661133,339.942322 385.342712,340.400970 
	C385.342712,340.400970 385.381195,340.396362 385.020020,340.313080 
	C384.083435,341.121216 383.508057,342.012665 382.932678,342.904083 
	C382.932678,342.904083 382.985718,342.990326 382.591888,342.966797 
	C381.111877,343.932373 380.025696,344.921509 378.939484,345.910614 
	C378.754333,346.186005 378.569183,346.461395 377.841827,346.883911 
	C376.844971,347.655640 376.390289,348.280243 375.935608,348.904846 
	C375.935608,348.904846 375.977753,348.980438 375.722961,349.061646 
	C375.200226,349.333374 375.028290,349.588623 374.952423,349.908569 
	C374.952423,349.908569 374.990997,349.985748 374.599274,349.974762 
	C372.789703,351.532379 371.371857,353.100983 369.953979,354.669556 
	C369.792236,354.738495 369.630463,354.807404 368.881226,354.978882 
	C367.181885,356.361298 366.069946,357.641144 364.958008,358.921021 
	C364.958008,358.921021 364.984283,358.992859 364.642120,359.020081 
	C363.849274,359.670837 363.398560,360.294312 362.947876,360.917816 
	C362.947876,360.917816 362.985992,360.987457 362.733490,361.071167 
	C362.211548,361.347198 362.039124,361.604553 361.963715,361.926910 
	C361.963715,361.926910 361.992828,361.992310 361.762024,362.038940 
	C361.276276,362.222931 361.094696,362.425934 360.986511,362.694580 
	C360.504578,363.062866 360.022644,363.431183 358.943176,363.935120 
	C357.876068,364.676483 357.406494,365.282166 356.936951,365.887878 
	C356.936951,365.887878 356.970612,365.968903 356.591248,365.964905 
	C355.465790,366.619415 354.719666,367.277893 353.973541,367.936371 
	C353.786316,368.212891 353.599091,368.489441 352.957764,368.959229 
	C352.223633,369.334808 352.040131,369.587280 351.953094,369.909912 
	C351.953094,369.909912 351.982758,369.983154 351.731140,370.063232 
	C351.211792,370.332275 351.036133,370.585205 350.952545,370.902069 
	C350.952545,370.902069 350.981506,370.983002 350.575500,370.970459 
	C348.764923,372.287689 347.360352,373.617401 345.955780,374.947113 
	C345.955780,374.947113 345.997253,375.000427 345.749329,375.082825 
	C345.227356,375.360962 345.049072,375.622131 344.966644,375.948730 
	C344.966644,375.948730 344.999847,375.998444 344.755829,376.079712 
	C344.237305,376.348846 344.052582,376.602142 343.957611,376.920898 
	C343.957611,376.920898 343.984283,376.992615 343.734589,377.065613 
	C343.213837,377.321991 343.034546,377.571350 342.947021,377.886719 
	C342.947021,377.886719 342.977783,377.968353 342.571594,377.961060 
	C337.831421,379.435364 333.712708,381.190033 331.984253,385.977631 
	C331.984253,385.977631 332.000000,386.000000 331.641846,386.022583 
	C329.986206,387.164612 328.688690,388.284058 327.391174,389.403503 
	C327.255951,389.287018 327.120758,389.170563 326.846985,389.205719 
	C325.785675,390.523560 324.862976,391.689789 323.940247,392.855988 
	C323.940247,392.855988 323.947784,392.947815 323.555420,392.992676 
	C318.121368,396.284058 311.512695,397.514923 309.016266,404.035431 
	C309.016266,404.035431 308.998779,403.998871 308.616577,403.995544 
	C306.418365,404.580750 304.290131,404.749115 302.838348,405.827820 
	C295.010376,411.644470 287.449219,417.821594 279.594116,423.599854 
	C275.087982,426.914612 270.006744,429.450928 265.523193,432.792297 
	C257.040527,439.113983 246.715912,439.794800 237.603241,433.148163 
	C231.095032,428.401184 224.460495,423.823547 217.803253,419.286346 
	C214.350937,416.933411 209.680389,415.570435 207.459351,412.420959 
	C204.976532,408.900208 202.323669,408.998474 199.093597,408.962646 
	C199.093597,408.962646 199.018204,408.962708 198.932205,408.719421 
	C198.663208,408.220612 198.420959,408.048431 198.119446,407.959625 
	C198.119446,407.959625 198.041275,407.964569 197.978149,407.599243 
	C196.975769,406.806824 196.036514,406.379669 195.097260,405.952515 
	C195.097260,405.952515 195.021072,405.957428 194.889160,405.700745 
	C194.278793,405.286194 193.800339,405.128296 193.321884,404.970398 
	C183.893646,397.580719 174.367477,390.311859 165.064468,382.767792 
	C155.606079,375.097717 146.197113,367.349152 137.079208,359.281494 
	C127.290520,350.620331 117.287811,342.083832 108.421898,332.525177 
	C96.071167,319.209381 84.760208,304.933594 72.870453,291.184326 
	C64.101723,281.044220 57.356777,269.558838 51.473557,257.689453 
	C43.094154,240.784058 37.363823,222.807281 34.253277,204.189774 
	C32.928665,196.261566 33.397369,188.033737 33.468769,179.361359 
	C34.265644,173.183167 34.644867,167.585693 35.024090,161.988235 
	C35.071220,161.564728 35.118351,161.141235 35.560432,160.278961 
	C36.427917,158.662338 36.949005,157.501389 37.365093,156.303925 
	C40.034531,148.621689 42.727001,140.946915 45.312210,133.236267 
	C46.344967,130.155945 47.124413,126.990707 48.019173,123.864128 
	C48.166645,123.343399 48.314110,122.822678 48.931152,122.415382 
	C50.095577,122.273781 51.116928,122.226532 51.432735,121.730278 
	C53.622753,118.289024 55.521393,114.655380 57.821693,111.294388 
	C58.864082,109.771347 60.610199,108.729950 62.104397,107.410599 
	C62.694473,106.000977 62.973721,103.252350 64.250580,102.662216 
	C68.602905,100.650650 69.337669,96.559410 70.998154,92.936333 
	C71.495789,92.365379 71.993423,91.794426 72.978348,91.009201 
	C73.736710,90.589447 73.915665,90.322258 74.002510,89.993378 
	C74.002510,89.993378 74.000916,90.001152 74.221741,89.901733 
	C74.724327,89.608017 74.914291,89.346924 75.012466,89.019035 
	C75.012466,89.019035 74.999695,88.999695 75.229233,88.901199 
	C75.732224,88.604271 75.917084,88.343132 76.013359,88.019272 
	C76.013359,88.019272 76.000000,88.000000 76.303177,87.986694 
	C77.067039,87.648933 77.527718,87.324471 77.988403,87.000015 
	C87.838295,77.421661 100.044090,71.962547 112.667305,67.283371 
	C127.160233,61.911140 142.186783,59.147480 157.601746,60.214504 
	C172.504959,61.246105 186.770828,64.890228 200.615372,71.064125 
	C214.103592,77.079124 225.554047,85.668785 236.350098,95.283264 
	C241.098633,99.512108 244.714432,105.014137 248.834351,109.946594 
	C249.666138,110.942459 250.452026,111.976669 251.404709,113.176636 
	C255.320023,108.557678 258.879974,104.045113 262.768188,99.835754 
	C270.979767,90.945915 279.850769,82.858154 290.949829,77.568665 
	C297.736908,74.334129 304.221741,70.380844 311.187897,67.623589 
	C327.316071,61.239941 344.003265,59.128288 361.431152,60.922939 
	C376.906616,62.516537 391.271942,67.428604 405.010345,73.961960 
	C413.035858,77.778534 420.599945,83.237808 427.168549,89.268471 
	C434.696838,96.180283 440.892761,104.543343 447.950165,112.803123 
	C448.468445,113.597298 448.704102,113.864258 448.939789,114.131210 
	C448.939789,114.131210 448.983856,114.510223 448.978333,115.065613 
	C449.657501,116.418877 450.342163,117.216751 451.026855,118.014626 
	C451.307953,118.455833 451.589081,118.897041 452.021118,119.850410 
	C452.396423,120.611198 452.620789,120.859833 452.845184,121.108475 
	C452.845184,121.108475 452.889709,121.505844 452.947815,122.080978 
	C455.267548,126.826637 457.529236,130.997162 459.790894,135.167679 
	C459.790894,135.167679 459.871002,135.586533 459.976624,136.013916 
	C460.218323,136.727936 460.431732,136.934875 460.722473,137.062088 
	C460.722473,137.062088 460.849670,137.506363 460.914093,138.023590 
	C461.236938,139.053467 461.495331,139.566101 461.753754,140.078735 
	C461.753754,140.078735 461.862823,140.519638 461.908203,141.169647 
	C463.246643,145.585327 464.539703,149.350998 465.832764,153.116669 
	C465.845642,153.532486 465.858521,153.948318 465.653992,154.926682 
	C465.934448,159.547882 466.751526,163.597412 466.867584,167.666962 
	C467.162445,178.009018 467.323700,188.362518 467.179596,198.706467 
	C467.098877,204.499557 466.304016,210.282715 465.830933,216.070343 
M127.342476,207.881882 
	C123.104836,213.440643 120.758804,219.494522 125.305641,225.747986 
	C129.743958,231.852188 135.282669,236.961304 142.896759,239.058578 
	C155.637543,242.567947 168.618820,245.348602 181.810242,243.633881 
	C192.445847,242.251373 203.106293,239.997284 213.317688,236.751755 
	C221.431122,234.173004 226.796768,227.340210 226.711365,218.627762 
	C226.626724,209.996262 220.407471,204.737991 212.940155,201.193619 
	C211.030518,200.287216 209.025955,199.580750 207.072311,198.785400 
	C207.906113,195.315048 209.029892,192.287842 209.213654,189.204620 
	C209.311356,187.565353 208.154190,184.871170 206.890503,184.378189 
	C205.298676,183.757187 202.344635,184.239899 201.186447,185.426041 
	C199.190964,187.469711 198.248154,190.503387 196.624191,192.963577 
	C195.810333,194.196518 194.420746,196.010361 193.374390,195.956329 
	C189.590973,195.761017 185.576187,195.484528 182.205353,193.986298 
	C180.748138,193.338623 180.886871,189.523148 179.853119,187.360550 
	C179.081390,185.746124 177.528900,183.257599 176.435120,183.313934 
	C174.397217,183.418884 172.300476,184.902008 170.514420,186.204102 
	C169.739868,186.768768 169.346619,188.305801 169.344940,189.402039 
	C169.338364,193.723282 166.875229,194.371124 163.110001,195.304153 
	C156.925781,196.836624 153.342819,195.409866 151.401718,189.371460 
	C150.963455,188.008209 150.024811,186.465271 148.859421,185.754929 
	C147.044113,184.648422 144.019897,183.003723 142.986557,183.720047 
	C141.390839,184.826233 140.365173,187.724091 140.334534,189.879639 
	C140.293884,192.739029 141.443787,195.615356 141.942978,197.859131 
	C136.847763,201.267883 132.322021,204.295654 127.342476,207.881882 
M282.857056,204.288498 
	C274.102234,211.624878 271.566711,219.546585 276.532104,226.208023 
	C280.903595,232.072678 286.049438,237.149155 293.615417,239.229141 
	C309.855652,243.693756 326.281830,245.606522 342.927063,242.664429 
	C351.850800,241.087143 360.935608,239.625443 368.699677,234.103546 
	C381.218353,225.200089 380.961304,211.132263 367.897491,203.257355 
	C365.082336,201.560379 362.073975,200.183929 359.142731,198.653641 
	C359.833862,195.387360 360.961151,192.339325 360.939270,189.299576 
	C360.926331,187.505341 359.482483,185.017029 357.949097,184.173813 
	C356.837738,183.562668 353.989685,184.642181 352.862823,185.850662 
	C350.881439,187.975586 349.706940,190.832886 348.026978,193.267929 
	C347.269257,194.366272 346.067108,196.030792 345.138916,195.984589 
	C341.512299,195.804169 337.571655,195.743210 334.445435,194.212738 
	C332.790680,193.402649 332.572418,189.660843 331.701569,187.244034 
	C331.589050,186.931747 331.455170,186.626953 331.325256,186.321182 
	C329.759888,182.637054 326.078583,181.863983 323.520264,184.894958 
	C322.387482,186.237015 321.273102,188.086105 321.211182,189.744644 
	C321.051270,194.027252 318.660156,195.039078 315.029968,195.124496 
	C313.388336,195.163132 311.738770,195.574615 310.125641,195.955795 
	C307.466736,196.584106 305.894958,195.815567 304.685364,193.159790 
	C303.341003,190.208145 301.545471,187.348801 299.408539,184.923065 
	C298.457092,183.843063 295.683167,183.071930 294.644409,183.689011 
	C293.301880,184.486572 292.146881,186.834091 292.193420,188.477859 
	C292.289429,191.866028 293.235657,195.230118 293.859894,198.761398 
	C292.027191,199.564651 290.337219,200.233154 288.713837,201.036224 
	C286.929657,201.918884 285.206726,202.925430 282.857056,204.288498 
M232.447952,263.933807 
	C231.734283,265.249878 230.975555,266.543732 230.314835,267.885864 
	C227.564636,273.472290 227.551117,276.999786 232.762100,279.968262 
	C238.365250,283.160095 245.009308,284.641815 251.344620,286.320923 
	C252.460220,286.616638 254.951416,284.480408 255.556366,282.967163 
	C255.954300,281.971771 254.402115,279.743927 253.187378,278.679382 
	C251.876450,277.530518 249.986832,276.962341 248.270935,276.368225 
	C237.711044,272.711975 237.762177,272.761780 242.643921,262.693237 
	C245.227112,257.365448 247.752151,251.991409 249.891846,246.478500 
	C250.478836,244.966171 250.033310,241.566528 249.277161,241.305542 
	C247.223663,240.596741 245.123840,240.188217 243.610245,243.774384 
	C240.734680,250.587494 236.498932,256.826508 232.447952,263.933807 
z"/>
<path fill="#C43E40" opacity="1.000000" stroke="none" 
	d="
M199.179230,409.294556 
	C202.323669,408.998474 204.976532,408.900208 207.459351,412.420959 
	C209.680389,415.570435 214.350937,416.933411 217.803253,419.286346 
	C224.460495,423.823547 231.095032,428.401184 237.603241,433.148163 
	C246.715912,439.794800 257.040527,439.113983 265.523193,432.792297 
	C270.006744,429.450928 275.087982,426.914612 279.594116,423.599854 
	C287.449219,417.821594 295.010376,411.644470 302.838348,405.827820 
	C304.290131,404.749115 306.418365,404.580750 308.634705,404.004517 
	C306.491882,406.377472 304.194672,409.097473 301.362457,411.035797 
	C289.965057,418.835938 278.144287,426.042908 267.020355,434.205505 
	C262.180145,437.757263 257.658356,439.602325 251.599121,440.202332 
	C242.828049,441.070831 237.158157,436.036926 230.973358,431.925629 
	C220.216248,424.774811 209.815201,417.088379 199.179230,409.294556 
z"/>
<path fill="#B33A38" opacity="1.000000" stroke="none" 
	d="
M465.916565,215.669785 
	C466.304016,210.282715 467.098877,204.499557 467.179596,198.706467 
	C467.323700,188.362518 467.162445,178.009018 466.867584,167.666962 
	C466.751526,163.597412 465.934448,159.547882 465.690796,155.236603 
	C467.277161,161.421951 469.340424,167.809296 469.790344,174.308334 
	C470.745300,188.101547 469.648956,201.836472 465.916565,215.669785 
z"/>
<path fill="#D03D40" opacity="1.000000" stroke="none" 
	d="
M70.643677,92.970123 
	C69.337669,96.559410 68.602905,100.650650 64.250580,102.662216 
	C62.973721,103.252350 62.694473,106.000977 62.104397,107.410599 
	C60.610199,108.729950 58.864082,109.771347 57.821693,111.294388 
	C55.521393,114.655380 53.622753,118.289024 51.432735,121.730278 
	C51.116928,122.226532 50.095577,122.273781 49.179337,122.300865 
	C51.655560,117.410973 53.952141,112.449638 57.152412,108.162964 
	C61.141884,102.819191 65.876389,98.031631 70.643677,92.970123 
z"/>
<path fill="#C24647" opacity="1.000000" stroke="none" 
	d="
M47.674240,123.995895 
	C47.124413,126.990707 46.344967,130.155945 45.312210,133.236267 
	C42.727001,140.946915 40.034531,148.621689 37.365093,156.303925 
	C36.949005,157.501389 36.427917,158.662338 35.617905,159.964539 
	C36.083778,149.305786 40.051491,139.502106 44.624737,129.885025 
	C45.535297,127.970200 46.428242,126.046997 47.674240,123.995895 
z"/>
<path fill="#C43E40" opacity="1.000000" stroke="none" 
	d="
M309.376740,403.999420 
	C311.512695,397.514923 318.121368,396.284058 323.509644,392.987305 
	C319.149902,396.612457 314.443542,400.287933 309.376740,403.999420 
z"/>
<path fill="#C24647" opacity="1.000000" stroke="none" 
	d="
M34.664196,162.199188 
	C34.644867,167.585693 34.265644,173.183167 33.520447,178.896332 
	C33.537754,173.478088 33.921032,167.944122 34.664196,162.199188 
z"/>
<path fill="#B33A38" opacity="1.000000" stroke="none" 
	d="
M459.913452,134.797577 
	C457.529236,130.997162 455.267548,126.826637 453.014801,122.269341 
	C455.361145,126.064201 457.698578,130.245834 459.913452,134.797577 
z"/>
<path fill="#C43E40" opacity="1.000000" stroke="none" 
	d="
M332.332275,385.941650 
	C333.712708,381.190033 337.831421,379.435364 342.532104,377.942566 
	C339.492615,380.589478 336.086456,383.247589 332.332275,385.941650 
z"/>
<path fill="#B33A38" opacity="1.000000" stroke="none" 
	d="
M465.940552,152.720520 
	C464.539703,149.350998 463.246643,145.585327 461.970459,141.388031 
	C463.341003,144.745728 464.694641,148.535049 465.940552,152.720520 
z"/>
<path fill="#C43E40" opacity="1.000000" stroke="none" 
	d="
M392.300598,333.863403 
	C393.714661,331.953888 395.445343,329.950836 397.538971,327.939301 
	C396.140350,329.877167 394.378784,331.823517 392.300598,333.863403 
z"/>
<path fill="#C43E40" opacity="1.000000" stroke="none" 
	d="
M370.270874,354.650818 
	C371.371857,353.100983 372.789703,351.532379 374.562683,349.951904 
	C373.474487,351.504059 372.031128,353.068054 370.270874,354.650818 
z"/>
<path fill="#C43E40" opacity="1.000000" stroke="none" 
	d="
M346.268616,374.836670 
	C347.360352,373.617401 348.764923,372.287689 350.539185,370.947510 
	C349.466400,372.200134 348.023926,373.463196 346.268616,374.836670 
z"/>
<path fill="#C43E40" opacity="1.000000" stroke="none" 
	d="
M327.696198,389.297424 
	C328.688690,388.284058 329.986206,387.164612 331.630859,386.014099 
	C330.652435,387.052429 329.326813,388.121887 327.696198,389.297424 
z"/>
<path fill="#C43E40" opacity="1.000000" stroke="none" 
	d="
M324.286835,392.851929 
	C324.862976,391.689789 325.785675,390.523560 327.054138,389.374451 
	C326.477753,390.543640 325.555603,391.695770 324.286835,392.851929 
z"/>
<path fill="#C43E40" opacity="1.000000" stroke="none" 
	d="
M379.245911,345.810120 
	C380.025696,344.921509 381.111877,343.932373 382.550781,342.937225 
	C381.786438,343.857361 380.669373,344.783478 379.245911,345.810120 
z"/>
<path fill="#C43E40" opacity="1.000000" stroke="none" 
	d="
M365.261963,358.828125 
	C366.069946,357.641144 367.181885,356.361298 368.628540,355.054504 
	C367.830780,356.263458 366.698364,357.499329 365.261963,358.828125 
z"/>
<path fill="#C43E40" opacity="1.000000" stroke="none" 
	d="
M398.242554,327.861847 
	C398.655334,326.962097 399.373138,326.016632 400.437042,325.115051 
	C400.037933,326.044647 399.292755,326.930389 398.242554,327.861847 
z"/>
<path fill="#C43E40" opacity="1.000000" stroke="none" 
	d="
M195.174438,406.267761 
	C196.036514,406.379669 196.975769,406.806824 197.982422,407.560333 
	C197.117081,407.452148 196.184357,407.017578 195.174438,406.267761 
z"/>
<path fill="#B33A38" opacity="1.000000" stroke="none" 
	d="
M451.017395,117.680618 
	C450.342163,117.216751 449.657501,116.418877 448.997314,115.255447 
	C449.683868,115.708794 450.345917,116.527702 451.017395,117.680618 
z"/>
<path fill="#C43E40" opacity="1.000000" stroke="none" 
	d="
M383.229553,342.827240 
	C383.508057,342.012665 384.083435,341.121216 385.016388,340.332153 
	C384.758118,341.206482 384.142273,341.978455 383.229553,342.827240 
z"/>
<path fill="#C43E40" opacity="1.000000" stroke="none" 
	d="
M354.269470,367.836945 
	C354.719666,367.277893 355.465790,366.619415 356.550537,365.948608 
	C356.114563,366.536713 355.339966,367.137115 354.269470,367.836945 
z"/>
<path fill="#C43E40" opacity="1.000000" stroke="none" 
	d="
M357.222076,365.831482 
	C357.406494,365.282166 357.876068,364.676483 358.655579,364.038208 
	C358.479431,364.595428 357.993317,365.185272 357.222076,365.831482 
z"/>
<path fill="#C43E40" opacity="1.000000" stroke="none" 
	d="
M363.226807,360.833618 
	C363.398560,360.294312 363.849274,359.670837 364.608521,359.001831 
	C364.446625,359.554016 363.976196,360.151733 363.226807,360.833618 
z"/>
<path fill="#C43E40" opacity="1.000000" stroke="none" 
	d="
M389.212891,336.757874 
	C389.401794,336.202789 389.881439,335.618042 390.669708,335.019806 
	C390.486755,335.580261 389.995209,336.154236 389.212891,336.757874 
z"/>
<path fill="#C43E40" opacity="1.000000" stroke="none" 
	d="
M376.216278,348.821106 
	C376.390289,348.280243 376.844971,347.655640 377.609802,346.985657 
	C377.445618,347.539276 376.971283,348.138336 376.216278,348.821106 
z"/>
<path fill="#C43E40" opacity="1.000000" stroke="none" 
	d="
M385.621826,340.324646 
	C385.661133,339.942322 385.979553,339.483673 386.607208,338.982788 
	C386.577911,339.376495 386.239410,339.812408 385.621826,340.324646 
z"/>
<path fill="#D03D40" opacity="1.000000" stroke="none" 
	d="
M77.687088,87.036079 
	C77.527718,87.324471 77.067039,87.648933 76.311790,87.994598 
	C76.473404,87.701248 76.929588,87.386696 77.687088,87.036079 
z"/>
<path fill="#C43E40" opacity="1.000000" stroke="none" 
	d="
M193.330963,405.263489 
	C193.800339,405.128296 194.278793,405.286194 194.894455,405.662964 
	C194.467773,405.773407 193.903915,405.665009 193.330963,405.263489 
z"/>
<path fill="#B33A38" opacity="1.000000" stroke="none" 
	d="
M461.849670,139.761749 
	C461.495331,139.566101 461.236938,139.053467 460.985413,138.243378 
	C461.310059,138.445541 461.627838,138.945160 461.849670,139.761749 
z"/>
<path fill="#B33A38" opacity="1.000000" stroke="none" 
	d="
M460.771545,136.803497 
	C460.431732,136.934875 460.218323,136.727936 460.031860,136.219849 
	C460.261230,136.180573 460.540894,136.362732 460.771545,136.803497 
z"/>
<path fill="#C43E40" opacity="1.000000" stroke="none" 
	d="
M198.163361,408.200684 
	C198.420959,408.048431 198.663208,408.220612 198.938507,408.682251 
	C198.665329,408.907196 198.390823,408.758331 198.163361,408.200684 
z"/>
<path fill="#D03D40" opacity="1.000000" stroke="none" 
	d="
M75.765610,88.086647 
	C75.917084,88.343132 75.732224,88.604271 75.238998,88.907471 
	C75.185440,88.726181 75.351646,88.440102 75.765610,88.086647 
z"/>
<path fill="#D03D40" opacity="1.000000" stroke="none" 
	d="
M74.764526,89.086205 
	C74.914291,89.346924 74.724327,89.608017 74.217812,89.902405 
	C74.167557,89.719460 74.342072,89.436417 74.764526,89.086205 
z"/>
<path fill="#D03D40" opacity="1.000000" stroke="none" 
	d="
M73.754089,90.066353 
	C73.915665,90.322258 73.736710,90.589447 73.246780,90.904739 
	C73.187172,90.722801 73.346420,90.431061 73.754089,90.066353 
z"/>
<path fill="#B33A38" opacity="1.000000" stroke="none" 
	d="
M448.998810,113.820160 
	C448.704102,113.864258 448.468445,113.597298 448.154480,113.075073 
	C448.403412,113.049583 448.730621,113.279343 448.998810,113.820160 
z"/>
<path fill="#B33A38" opacity="1.000000" stroke="none" 
	d="
M452.920471,120.812744 
	C452.620789,120.859833 452.396423,120.611198 452.104919,120.119034 
	C452.357147,120.089340 452.676422,120.303177 452.920471,120.812744 
z"/>
<path fill="#C43E40" opacity="1.000000" stroke="none" 
	d="
M343.190125,377.835327 
	C343.034546,377.571350 343.213837,377.321991 343.700806,377.047668 
	C343.907745,377.321411 343.746582,377.597168 343.190125,377.835327 
z"/>
<path fill="#C43E40" opacity="1.000000" stroke="none" 
	d="
M344.208374,376.870941 
	C344.052582,376.602142 344.237305,376.348846 344.730286,376.064270 
	C344.785522,376.252014 344.622314,376.536499 344.208374,376.870941 
z"/>
<path fill="#C43E40" opacity="1.000000" stroke="none" 
	d="
M345.211792,375.882629 
	C345.049072,375.622131 345.227356,375.360962 345.720734,375.064758 
	C345.778992,375.248413 345.617950,375.532471 345.211792,375.882629 
z"/>
<path fill="#C43E40" opacity="1.000000" stroke="none" 
	d="
M351.199280,370.851807 
	C351.036133,370.585205 351.211792,370.332275 351.694397,370.048706 
	C351.754852,370.236603 351.600433,370.519073 351.199280,370.851807 
z"/>
<path fill="#C43E40" opacity="1.000000" stroke="none" 
	d="
M352.199280,369.856964 
	C352.040131,369.587280 352.223633,369.334808 352.723938,369.060791 
	C352.777954,369.247406 352.611725,369.525696 352.199280,369.856964 
z"/>
<path fill="#C43E40" opacity="1.000000" stroke="none" 
	d="
M391.259399,334.920593 
	C391.055817,334.636108 391.219543,334.366821 391.726624,334.081665 
	C391.804321,334.284119 391.656555,334.574127 391.259399,334.920593 
z"/>
<path fill="#C43E40" opacity="1.000000" stroke="none" 
	d="
M361.224670,362.722900 
	C361.094696,362.425934 361.276276,362.222931 361.729431,362.024139 
	C361.938354,362.323212 361.783417,362.586029 361.224670,362.722900 
z"/>
<path fill="#C43E40" opacity="1.000000" stroke="none" 
	d="
M362.207733,361.867340 
	C362.039124,361.604553 362.211548,361.347198 362.696320,361.057251 
	C362.758362,361.242340 362.605042,361.525055 362.207733,361.867340 
z"/>
<path fill="#C43E40" opacity="1.000000" stroke="none" 
	d="
M388.150024,337.652954 
	C388.047729,337.467377 388.180847,337.289581 388.506226,337.065552 
	C388.693298,337.269012 388.588959,337.482819 388.150024,337.652954 
z"/>
<path fill="#C43E40" opacity="1.000000" stroke="none" 
	d="
M387.189575,338.848450 
	C387.015045,338.603363 387.165588,338.355103 387.594696,338.051575 
	C387.875275,338.314758 387.755768,338.597778 387.189575,338.848450 
z"/>
<path fill="#C43E40" opacity="1.000000" stroke="none" 
	d="
M375.195984,349.851501 
	C375.028290,349.588623 375.200226,349.333374 375.682434,349.046509 
	C375.744293,349.231598 375.591919,349.513031 375.195984,349.851501 
z"/>
<path fill="#080203" opacity="1.000000" stroke="none" 
	d="
M127.569374,207.602661 
	C132.322021,204.295654 136.847763,201.267883 141.942978,197.859131 
	C141.443787,195.615356 140.293884,192.739029 140.334534,189.879639 
	C140.365173,187.724091 141.390839,184.826233 142.986557,183.720047 
	C144.019897,183.003723 147.044113,184.648422 148.859421,185.754929 
	C150.024811,186.465271 150.963455,188.008209 151.401718,189.371460 
	C153.342819,195.409866 156.925781,196.836624 163.110001,195.304153 
	C166.875229,194.371124 169.338364,193.723282 169.344940,189.402039 
	C169.346619,188.305801 169.739868,186.768768 170.514420,186.204102 
	C172.300476,184.902008 174.397217,183.418884 176.435120,183.313934 
	C177.528900,183.257599 179.081390,185.746124 179.853119,187.360550 
	C180.886871,189.523148 180.748138,193.338623 182.205353,193.986298 
	C185.576187,195.484528 189.590973,195.761017 193.374390,195.956329 
	C194.420746,196.010361 195.810333,194.196518 196.624191,192.963577 
	C198.248154,190.503387 199.190964,187.469711 201.186447,185.426041 
	C202.344635,184.239899 205.298676,183.757187 206.890503,184.378189 
	C208.154190,184.871170 209.311356,187.565353 209.213654,189.204620 
	C209.029892,192.287842 207.906113,195.315048 207.072311,198.785400 
	C209.025955,199.580750 211.030518,200.287216 212.940155,201.193619 
	C220.407471,204.737991 226.626724,209.996262 226.711365,218.627762 
	C226.796768,227.340210 221.431122,234.173004 213.317688,236.751755 
	C203.106293,239.997284 192.445847,242.251373 181.810242,243.633881 
	C168.618820,245.348602 155.637543,242.567947 142.896759,239.058578 
	C135.282669,236.961304 129.743958,231.852188 125.305641,225.747986 
	C120.758804,219.494522 123.104836,213.440643 127.569374,207.602661 
M209.232895,225.855621 
	C216.446945,221.383270 217.107681,217.670166 210.670990,214.572662 
	C204.989487,211.838577 198.704727,210.358139 191.522583,207.930878 
	C196.026199,216.949966 195.029007,224.076614 190.724823,231.785477 
	C196.657043,229.890594 202.589249,227.995712 209.232895,225.855621 
M157.537918,229.087601 
	C154.447449,222.625580 153.917374,216.096741 157.083374,208.926926 
	C150.675049,210.342651 144.437027,211.827087 138.633209,214.321671 
	C134.298401,216.184860 133.578751,220.630844 137.470581,222.846603 
	C143.649643,226.364563 150.682068,228.383835 157.373062,230.986786 
	C157.384720,230.991333 157.688171,230.245712 157.537918,229.087601 
z"/>
<path fill="#090203" opacity="1.000000" stroke="none" 
	d="
M283.157104,204.083252 
	C285.206726,202.925430 286.929657,201.918884 288.713837,201.036224 
	C290.337219,200.233154 292.027191,199.564651 293.859894,198.761398 
	C293.235657,195.230118 292.289429,191.866028 292.193420,188.477859 
	C292.146881,186.834091 293.301880,184.486572 294.644409,183.689011 
	C295.683167,183.071930 298.457092,183.843063 299.408539,184.923065 
	C301.545471,187.348801 303.341003,190.208145 304.685364,193.159790 
	C305.894958,195.815567 307.466736,196.584106 310.125641,195.955795 
	C311.738770,195.574615 313.388336,195.163132 315.029968,195.124496 
	C318.660156,195.039078 321.051270,194.027252 321.211182,189.744644 
	C321.273102,188.086105 322.387482,186.237015 323.520264,184.894958 
	C326.078583,181.863983 329.759888,182.637054 331.325256,186.321182 
	C331.455170,186.626953 331.589050,186.931747 331.701569,187.244034 
	C332.572418,189.660843 332.790680,193.402649 334.445435,194.212738 
	C337.571655,195.743210 341.512299,195.804169 345.138916,195.984589 
	C346.067108,196.030792 347.269257,194.366272 348.026978,193.267929 
	C349.706940,190.832886 350.881439,187.975586 352.862823,185.850662 
	C353.989685,184.642181 356.837738,183.562668 357.949097,184.173813 
	C359.482483,185.017029 360.926331,187.505341 360.939270,189.299576 
	C360.961151,192.339325 359.833862,195.387360 359.142731,198.653641 
	C362.073975,200.183929 365.082336,201.560379 367.897491,203.257355 
	C380.961304,211.132263 381.218353,225.200089 368.699677,234.103546 
	C360.935608,239.625443 351.850800,241.087143 342.927063,242.664429 
	C326.281830,245.606522 309.855652,243.693756 293.615417,239.229141 
	C286.049438,237.149155 280.903595,232.072678 276.532104,226.208023 
	C271.566711,219.546585 274.102234,211.624878 283.157104,204.083252 
M307.453430,214.342789 
	C307.986664,212.701492 308.519867,211.060196 309.508698,208.016525 
	C302.099945,210.597519 295.599182,212.409409 289.504028,215.130051 
	C284.700867,217.273987 284.537079,220.593643 288.728241,223.827637 
	C294.913971,228.600693 302.358429,230.012802 308.808350,231.302338 
	C308.237152,225.710144 307.698242,220.434097 307.453430,214.342789 
M351.283295,210.205795 
	C349.053345,209.782364 346.823395,209.358917 343.934143,208.810272 
	C347.250977,216.805237 346.593170,223.992355 342.702209,231.430145 
	C349.481262,229.525696 356.178650,227.625946 362.252563,224.510574 
	C367.760986,221.685226 367.357086,216.767960 361.818390,214.010910 
	C358.736145,212.476654 355.323578,211.606049 351.283295,210.205795 
z"/>
<path fill="#100202" opacity="1.000000" stroke="none" 
	d="
M232.638016,263.618896 
	C236.498932,256.826508 240.734680,250.587494 243.610245,243.774384 
	C245.123840,240.188217 247.223663,240.596741 249.277161,241.305542 
	C250.033310,241.566528 250.478836,244.966171 249.891846,246.478500 
	C247.752151,251.991409 245.227112,257.365448 242.643921,262.693237 
	C237.762177,272.761780 237.711044,272.711975 248.270935,276.368225 
	C249.986832,276.962341 251.876450,277.530518 253.187378,278.679382 
	C254.402115,279.743927 255.954300,281.971771 255.556366,282.967163 
	C254.951416,284.480408 252.460220,286.616638 251.344620,286.320923 
	C245.009308,284.641815 238.365250,283.160095 232.762100,279.968262 
	C227.551117,276.999786 227.564636,273.472290 230.314835,267.885864 
	C230.975555,266.543732 231.734283,265.249878 232.638016,263.618896 
z"/>
<path fill="#F6F6F6" opacity="1.000000" stroke="none" 
	d="
M208.877167,225.978241 
	C202.589249,227.995712 196.657043,229.890594 190.724823,231.785477 
	C195.029007,224.076614 196.026199,216.949966 191.522583,207.930878 
	C198.704727,210.358139 204.989487,211.838577 210.670990,214.572662 
	C217.107681,217.670166 216.446945,221.383270 208.877167,225.978241 
z"/>
<path fill="#F5F6F6" opacity="1.000000" stroke="none" 
	d="
M157.696625,229.469055 
	C157.688171,230.245712 157.384720,230.991333 157.373062,230.986786 
	C150.682068,228.383835 143.649643,226.364563 137.470581,222.846603 
	C133.578751,220.630844 134.298401,216.184860 138.633209,214.321671 
	C144.437027,211.827087 150.675049,210.342651 157.083374,208.926926 
	C153.917374,216.096741 154.447449,222.625580 157.696625,229.469055 
z"/>
<path fill="#F5F5F5" opacity="1.000000" stroke="none" 
	d="
M307.306396,214.750427 
	C307.698242,220.434097 308.237152,225.710144 308.808350,231.302338 
	C302.358429,230.012802 294.913971,228.600693 288.728241,223.827637 
	C284.537079,220.593643 284.700867,217.273987 289.504028,215.130051 
	C295.599182,212.409409 302.099945,210.597519 309.508698,208.016525 
	C308.519867,211.060196 307.986664,212.701492 307.306396,214.750427 
z"/>
<path fill="#F5F6F6" opacity="1.000000" stroke="none" 
	d="
M351.671570,210.321060 
	C355.323578,211.606049 358.736145,212.476654 361.818390,214.010910 
	C367.357086,216.767960 367.760986,221.685226 362.252563,224.510574 
	C356.178650,227.625946 349.481262,229.525696 342.702209,231.430145 
	C346.593170,223.992355 347.250977,216.805237 343.934143,208.810272 
	C346.823395,209.358917 349.053345,209.782364 351.671570,210.321060 
z"/>
</svg>