<svg xmlns="http://www.w3.org/2000/svg" width="24" height="24" viewBox="0 0 24 24"><title>ic_settings</title><g fill="none" fill-rule="evenodd"><path d="M0 0h24v24H0z"/><path fill="#FFF" fill-rule="nonzero" d="M13.851 3c.232 0 .429.158.463.382l.347 2.386a6.8 6.8 0 0 1 1.563.877l2.302-.9a.48.48 0 0 1 .567.202l1.852 3.117a.456.456 0 0 1-.116.573l-1.955 1.486q.069.42.069.877c0 .304-.023.596-.058.877l1.933 1.486a.43.43 0 0 1 .115.573l-1.851 3.116c-.116.203-.359.282-.567.203l-2.303-.9a7 7 0 0 1-1.562.878l-.347 2.384c-.023.226-.22.383-.452.383H10.15a.47.47 0 0 1-.463-.383l-.347-2.384a6.8 6.8 0 0 1-1.563-.878l-2.302.9a.48.48 0 0 1-.567-.203l-1.852-3.116a.456.456 0 0 1 .116-.573l1.955-1.485A5.5 5.5 0 0 1 5.057 12c0-.293.035-.596.081-.877L3.182 9.638a.43.43 0 0 1-.115-.574l1.851-3.117c.116-.202.359-.28.567-.202l2.303.9a7 7 0 0 1 1.562-.877l.347-2.385A.446.446 0 0 1 10.15 3ZM12 9a3 3 0 1 0 0 6 3 3 0 0 0 0-6"/></g></svg>