<svg width="241" height="58" viewBox="0 0 241 58" fill="none" xmlns="http://www.w3.org/2000/svg">
<path d="M60 56H82L80 58H58L60 56Z" fill="#F6921D"/>
<path d="M135 56H157L155 58H133L135 56Z" fill="#6C63A4"/>
<path d="M85 56H107L105 58H83L85 56Z" fill="#C1191F"/>
<path d="M110 56H132L130 58H108L110 56Z" fill="#83B545"/>
<path d="M94.9844 20.3503L103.117 17.0801L103.971 12L95.7062 15.3372L94.9844 20.3503Z" fill="white"/>
<path d="M137.739 38.5856H138.585V40.8513H139.139V38.5856H139.965V38.1001H137.739V38.5856Z" fill="white"/>
<path d="M142.173 38.1001L141.677 39.9975H141.664L141.173 38.1001H140.298V40.8513H140.828V38.6638H140.841L141.418 40.8513H141.92L142.504 38.6638H142.516V40.8513H143.048V38.1001H142.173Z" fill="white"/>
<path d="M12.4092 18.066C5.22152 18.066 0 23.3322 0 30.5887C0 36.6232 4.49791 41.002 10.696 41.002C17.8633 41.002 22.8709 35.7768 22.8709 28.2914C22.8709 22.2775 18.5683 18.066 12.4092 18.066ZM10.7239 36.3274C7.46489 36.3274 5.18803 33.8757 5.18803 30.3599C5.18803 26.1559 8.29267 22.7388 12.1135 22.7388C15.3372 22.7388 17.6828 25.2091 17.6828 28.6151C17.681 32.9382 14.6247 36.3274 10.7239 36.3274Z" fill="white"/>
<path d="M31.1524 22.0896C29.2029 22.0896 27.3279 22.2849 25.064 22.6737L21.5316 48H26.7977L27.8376 40.2765C28.576 40.3584 29.5136 40.4681 30.412 40.4681C37.8323 40.4681 41.4243 35.401 41.4243 30.598C41.4224 25.3672 37.4379 22.0896 31.1524 22.0896ZM28.4998 35.7805L29.787 26.5763C30.3339 26.4573 30.7227 26.3847 31.2287 26.3847C34.1584 26.3847 35.9572 27.9789 35.9572 30.5534C35.9591 33.4813 33.5316 36.4148 28.4998 35.7805Z" fill="white"/>
<path d="M133.849 14.9447L132.818 22.6681C132.078 22.5844 131.137 22.4691 130.242 22.4691C122.822 22.4691 119.234 27.5436 119.234 32.3355C119.234 37.5793 123.214 40.8495 129.504 40.8495C131.451 40.8495 133.324 40.656 135.588 40.2617L139.121 14.9447H133.849ZM130.867 36.3646C130.318 36.4836 129.928 36.5581 129.42 36.5581C126.496 36.5581 124.695 34.9564 124.695 32.382C124.695 29.4559 127.119 26.5298 132.154 27.1567L130.867 36.3646Z" fill="white"/>
<path d="M59.3712 32.382C60.6194 26.727 57.6152 22.4709 52.0737 22.4709C46.7239 22.4709 42.4678 26.8033 42.4678 32.235C42.4678 37.464 45.9054 40.8513 51.2887 40.8513C53.1247 40.8513 55.5653 40.5053 57.751 39.6813L58.3965 35.1499C55.5095 36.3255 53.4745 36.9506 51.8375 36.9506C49.3039 36.9506 47.5033 35.2708 47.7749 32.382H59.3712ZM51.9547 26.0983C53.7516 26.0983 54.8045 27.4283 54.492 29.3424H48.279C49.0658 27.1177 50.234 26.0983 51.9547 26.0983Z" fill="white"/>
<path d="M113.608 22.4709C111.465 22.4709 109.706 23.1369 107.555 24.772L107.872 22.7853H102.596L100.1 40.5053H105.37L106.975 29.1043C108.768 27.1921 110.21 26.3699 111.428 26.3699C112.829 26.3699 113.218 28.2077 112.985 29.9247L111.499 40.5053H116.774L118.871 26.727C118.997 25.7616 117.708 22.4709 113.608 22.4709Z" fill="white"/>
<path d="M96.1674 12.5897C96.1674 12.5897 92.3559 13.942 91.0612 14.4089C87.2516 15.8022 83.9424 16.2654 83.2429 22.7853H78.931L78.4344 26.3085C78.2484 25.0491 76.8253 22.4709 73.1943 22.4709C71.0476 22.4709 69.2879 23.1369 67.1394 24.772L67.4556 22.7853H62.182L59.6801 40.5053H64.9499L66.5571 29.1043C68.3485 27.1921 69.7957 26.3699 71.0104 26.3699C72.4111 26.3699 72.8036 28.2077 72.5692 29.9247L71.083 40.5053H76.3528L78.4511 26.727C78.4511 26.7103 78.4511 26.6973 78.4511 26.6842H82.657L80.5903 40.5928H85.8602L87.9194 26.6842H94.0673L92.1141 40.5053H97.3859L99.8859 22.7853H96.7664H88.5109C88.8867 19.7774 89.2476 19.7662 91.3812 19.0073C92.3559 18.6613 94.9174 17.8112 95.494 17.6252L96.1674 12.5897Z" fill="white"/>
<path d="M159.852 32.308L161.084 32.63C160.86 33.1527 160.617 33.7033 160.356 34.282C160.104 34.8513 159.843 35.4253 159.572 36.004C159.301 36.5733 159.026 37.1193 158.746 37.642C158.466 38.1553 158.2 38.6267 157.948 39.056L156.968 38.734C157.22 38.3047 157.481 37.824 157.752 37.292C158.023 36.76 158.284 36.2047 158.536 35.626C158.797 35.0473 159.04 34.4733 159.264 33.904C159.488 33.3347 159.684 32.8027 159.852 32.308ZM155.26 38.412C155.895 38.3933 156.613 38.37 157.416 38.342C158.228 38.314 159.087 38.2813 159.992 38.244C160.907 38.1973 161.84 38.1553 162.792 38.118C163.753 38.0713 164.705 38.0293 165.648 37.992L165.62 38.986C164.397 39.0513 163.165 39.1167 161.924 39.182C160.683 39.2567 159.502 39.322 158.382 39.378C157.271 39.434 156.277 39.4807 155.4 39.518L155.26 38.412ZM162.54 35.388L163.534 34.912C163.963 35.4067 164.397 35.9387 164.836 36.508C165.275 37.068 165.681 37.6187 166.054 38.16C166.427 38.7013 166.726 39.1867 166.95 39.616L165.9 40.19C165.676 39.7513 165.377 39.2567 165.004 38.706C164.64 38.146 164.239 37.5767 163.8 36.998C163.371 36.41 162.951 35.8733 162.54 35.388ZM158.438 27.646L159.6 27.968C159.292 28.724 158.928 29.4567 158.508 30.166C158.088 30.8753 157.64 31.538 157.164 32.154C156.688 32.7607 156.198 33.2927 155.694 33.75C155.629 33.6753 155.535 33.5913 155.414 33.498C155.293 33.4047 155.167 33.3113 155.036 33.218C154.905 33.1247 154.793 33.05 154.7 32.994C155.213 32.574 155.699 32.084 156.156 31.524C156.623 30.9547 157.052 30.3387 157.444 29.676C157.836 29.0133 158.167 28.3367 158.438 27.646ZM163.436 27.646C163.669 28.1033 163.945 28.5747 164.262 29.06C164.589 29.5453 164.934 30.0213 165.298 30.488C165.662 30.9547 166.026 31.3933 166.39 31.804C166.754 32.2147 167.099 32.5647 167.426 32.854C167.333 32.9287 167.23 33.0173 167.118 33.12C167.006 33.2227 166.899 33.33 166.796 33.442C166.693 33.554 166.605 33.6567 166.53 33.75C166.213 33.414 165.867 33.022 165.494 32.574C165.13 32.126 164.761 31.65 164.388 31.146C164.024 30.642 163.669 30.1287 163.324 29.606C162.979 29.074 162.675 28.5607 162.414 28.066L163.436 27.646ZM169.19 38.748H181.944V39.7H169.19V38.748ZM169.554 30.18H181.594V31.132H169.554V30.18ZM171.15 34.772H180.054V39.238H179.06V35.682H177.38V39.238H176.4V35.682H174.734V39.238H173.754V35.682H172.102V39.238H171.15V34.772ZM171.556 27.702L172.438 27.296C172.662 27.5667 172.877 27.856 173.082 28.164C173.297 28.4627 173.488 28.7613 173.656 29.06C173.833 29.3493 173.973 29.6153 174.076 29.858L173.138 30.334C173.045 30.0913 172.914 29.816 172.746 29.508C172.578 29.2 172.387 28.8873 172.172 28.57C171.967 28.2527 171.761 27.9633 171.556 27.702ZM178.71 27.212L179.788 27.562C179.499 28.0287 179.181 28.5047 178.836 28.99C178.491 29.4753 178.173 29.8907 177.884 30.236L176.974 29.914C177.179 29.6713 177.389 29.396 177.604 29.088C177.819 28.7707 178.024 28.4487 178.22 28.122C178.416 27.786 178.579 27.4827 178.71 27.212ZM173.418 30.46L174.454 30.768C174.099 31.5147 173.675 32.2147 173.18 32.868C172.685 33.5213 172.144 34.1233 171.556 34.674C170.977 35.2153 170.375 35.6867 169.75 36.088C169.694 36.0133 169.615 35.9293 169.512 35.836C169.419 35.7333 169.316 35.6353 169.204 35.542C169.101 35.4393 169.008 35.3553 168.924 35.29C169.867 34.758 170.73 34.072 171.514 33.232C172.307 32.392 172.942 31.468 173.418 30.46ZM177.548 30.474C177.856 31.09 178.253 31.6967 178.738 32.294C179.223 32.882 179.76 33.4187 180.348 33.904C180.945 34.38 181.547 34.7627 182.154 35.052C182.079 35.1173 181.995 35.2013 181.902 35.304C181.809 35.4067 181.715 35.514 181.622 35.626C181.538 35.7287 181.468 35.822 181.412 35.906C180.796 35.57 180.185 35.1407 179.578 34.618C178.981 34.086 178.425 33.4933 177.912 32.84C177.408 32.1867 176.979 31.51 176.624 30.81L177.548 30.474ZM189.518 27.17H190.638V29.802H189.518V27.17ZM189.532 30.124H190.624V40.162H189.532V30.124ZM183.834 29.186H196.434V30.208H183.834V29.186ZM185.262 32.112H194.46V33.134H186.312V38.384H185.262V32.112ZM194.054 32.112H195.132V37.054C195.132 37.3527 195.09 37.586 195.006 37.754C194.931 37.922 194.773 38.0527 194.53 38.146C194.297 38.23 193.975 38.2813 193.564 38.3C193.163 38.3187 192.663 38.328 192.066 38.328C192.047 38.1693 191.996 37.9967 191.912 37.81C191.837 37.614 191.767 37.4413 191.702 37.292C192.019 37.3013 192.318 37.3107 192.598 37.32C192.878 37.32 193.116 37.32 193.312 37.32C193.517 37.32 193.662 37.32 193.746 37.32C193.867 37.3107 193.947 37.2873 193.984 37.25C194.031 37.2033 194.054 37.1333 194.054 37.04V32.112ZM198.436 35.808H210.938V36.69H198.436V35.808ZM200.788 30.684H209.44V31.44H200.788V30.684ZM200.788 32.378H209.482V33.134H200.788V32.378ZM200.62 28.892H210.014V29.76H200.62V28.892ZM204.4 29.396H205.408V34.408H204.4V29.396ZM204.12 34.688H205.17V40.106H204.12V34.688ZM203.896 36.13L204.722 36.536C204.367 36.9 203.957 37.2547 203.49 37.6C203.033 37.936 202.538 38.258 202.006 38.566C201.474 38.8647 200.933 39.1307 200.382 39.364C199.831 39.6067 199.299 39.8073 198.786 39.966C198.702 39.8353 198.595 39.6813 198.464 39.504C198.333 39.3267 198.207 39.1867 198.086 39.084C198.609 38.944 199.145 38.776 199.696 38.58C200.247 38.3747 200.779 38.1413 201.292 37.88C201.815 37.6093 202.3 37.3293 202.748 37.04C203.196 36.7413 203.579 36.438 203.896 36.13ZM205.422 36.116C205.739 36.424 206.117 36.7273 206.556 37.026C207.004 37.3153 207.489 37.586 208.012 37.838C208.535 38.0807 209.071 38.3047 209.622 38.51C210.173 38.706 210.709 38.8647 211.232 38.986C211.157 39.0607 211.078 39.1493 210.994 39.252C210.91 39.3547 210.831 39.4573 210.756 39.56C210.681 39.6627 210.616 39.7607 210.56 39.854C210.037 39.7047 209.496 39.5133 208.936 39.28C208.385 39.056 207.844 38.7993 207.312 38.51C206.78 38.2207 206.281 37.9127 205.814 37.586C205.347 37.25 204.941 36.9 204.596 36.536L205.422 36.116ZM205.044 27.24L206.22 27.394C206.033 27.7673 205.833 28.1407 205.618 28.514C205.413 28.878 205.217 29.1907 205.03 29.452L204.106 29.256C204.274 28.976 204.447 28.6447 204.624 28.262C204.811 27.8793 204.951 27.5387 205.044 27.24ZM201.39 27.212L202.482 27.422C202.211 27.9353 201.899 28.4627 201.544 29.004C201.189 29.536 200.783 30.0633 200.326 30.586C199.878 31.1087 199.374 31.5987 198.814 32.056C198.758 31.9813 198.683 31.8973 198.59 31.804C198.506 31.7107 198.417 31.6267 198.324 31.552C198.231 31.468 198.142 31.4027 198.058 31.356C198.581 30.9453 199.052 30.502 199.472 30.026C199.901 29.55 200.275 29.0693 200.592 28.584C200.919 28.0987 201.185 27.6413 201.39 27.212ZM200.116 29.48H201.124V34.1H210.56V34.94H200.116V29.48ZM217.728 34.674H224.714V40.036H223.706V35.64H218.708V40.106H217.728V34.674ZM224.196 27.296L225.036 28.108C224.392 28.332 223.655 28.528 222.824 28.696C222.003 28.864 221.149 29.0087 220.262 29.13C219.375 29.2513 218.517 29.354 217.686 29.438C217.658 29.3167 217.611 29.1673 217.546 28.99C217.49 28.8127 217.434 28.6633 217.378 28.542C217.975 28.4767 218.596 28.402 219.24 28.318C219.884 28.234 220.509 28.1407 221.116 28.038C221.723 27.926 222.287 27.8093 222.81 27.688C223.342 27.5667 223.804 27.436 224.196 27.296ZM220.766 28.5H221.76V35.234H220.766V28.5ZM216.72 31.342H225.638V32.35H216.72V31.342ZM218.4 38.552H224.168V39.504H218.4V38.552ZM213.514 28.164L214.102 27.422C214.391 27.5527 214.699 27.7067 215.026 27.884C215.362 28.0613 215.684 28.2387 215.992 28.416C216.3 28.584 216.552 28.7333 216.748 28.864L216.132 29.732C215.936 29.5827 215.684 29.4193 215.376 29.242C215.077 29.0553 214.765 28.8687 214.438 28.682C214.111 28.486 213.803 28.3133 213.514 28.164ZM212.828 32.014L213.402 31.244C213.682 31.3747 213.985 31.5287 214.312 31.706C214.639 31.8833 214.951 32.056 215.25 32.224C215.558 32.392 215.81 32.5413 216.006 32.672L215.418 33.54C215.231 33.4093 214.989 33.2553 214.69 33.078C214.391 32.9007 214.079 32.7187 213.752 32.532C213.425 32.336 213.117 32.1633 212.828 32.014ZM213.15 39.224C213.402 38.8693 213.682 38.4447 213.99 37.95C214.307 37.446 214.625 36.914 214.942 36.354C215.259 35.7847 215.553 35.2387 215.824 34.716L216.594 35.402C216.351 35.8967 216.081 36.41 215.782 36.942C215.493 37.474 215.199 37.9967 214.9 38.51C214.601 39.0233 214.317 39.4993 214.046 39.938L213.15 39.224ZM227.766 36.382H234.15V37.194H227.766V36.382ZM227.388 29.634H234.388V30.46H227.388V29.634ZM230.426 28.374H231.392V38.664H230.426V28.374ZM227.388 38.692C227.957 38.636 228.611 38.5753 229.348 38.51C230.095 38.4447 230.883 38.37 231.714 38.286C232.554 38.202 233.385 38.1133 234.206 38.02L234.22 38.846C233.427 38.9393 232.629 39.0327 231.826 39.126C231.023 39.2287 230.253 39.3173 229.516 39.392C228.788 39.476 228.125 39.5507 227.528 39.616L227.388 38.692ZM228.676 33.778V34.8H233.226V33.778H228.676ZM228.676 32.07V33.078H233.226V32.07H228.676ZM227.808 31.342H234.122V35.528H227.808V31.342ZM233.618 27.38L234.136 28.192C233.585 28.304 232.951 28.4067 232.232 28.5C231.513 28.5933 230.767 28.6727 229.992 28.738C229.227 28.794 228.494 28.8313 227.794 28.85C227.775 28.738 227.738 28.6073 227.682 28.458C227.635 28.3087 227.589 28.178 227.542 28.066C228.065 28.038 228.601 28.0053 229.152 27.968C229.712 27.9213 230.263 27.87 230.804 27.814C231.355 27.758 231.868 27.6927 232.344 27.618C232.829 27.5433 233.254 27.464 233.618 27.38ZM234.276 30.516H239.33V31.482H234.276V30.516ZM238.924 30.516H239.932C239.932 30.516 239.932 30.5533 239.932 30.628C239.932 30.6933 239.932 30.768 239.932 30.852C239.932 30.9267 239.932 30.9873 239.932 31.034C239.895 32.518 239.853 33.7687 239.806 34.786C239.769 35.794 239.722 36.62 239.666 37.264C239.61 37.908 239.54 38.4073 239.456 38.762C239.381 39.1073 239.283 39.3547 239.162 39.504C239.041 39.6907 238.905 39.8213 238.756 39.896C238.607 39.9707 238.429 40.0173 238.224 40.036C238.028 40.064 237.776 40.0733 237.468 40.064C237.16 40.064 236.838 40.0593 236.502 40.05C236.493 39.9007 236.46 39.728 236.404 39.532C236.348 39.3453 236.278 39.182 236.194 39.042C236.539 39.07 236.857 39.084 237.146 39.084C237.435 39.0933 237.645 39.098 237.776 39.098C237.888 39.098 237.981 39.084 238.056 39.056C238.131 39.028 238.201 38.972 238.266 38.888C238.359 38.776 238.439 38.5567 238.504 38.23C238.569 37.894 238.625 37.4133 238.672 36.788C238.719 36.1627 238.761 35.3553 238.798 34.366C238.845 33.3767 238.887 32.1727 238.924 30.754V30.516ZM235.97 27.422H236.992C236.983 28.5327 236.964 29.606 236.936 30.642C236.917 31.678 236.857 32.6627 236.754 33.596C236.651 34.5293 236.479 35.402 236.236 36.214C236.003 37.026 235.671 37.768 235.242 38.44C234.822 39.1027 234.276 39.686 233.604 40.19C233.557 40.106 233.487 40.0173 233.394 39.924C233.301 39.8307 233.203 39.7373 233.1 39.644C233.007 39.56 232.918 39.49 232.834 39.434C233.469 38.9767 233.987 38.44 234.388 37.824C234.789 37.1987 235.097 36.508 235.312 35.752C235.536 34.9867 235.69 34.1653 235.774 33.288C235.867 32.4013 235.923 31.468 235.942 30.488C235.961 29.4987 235.97 28.4767 235.97 27.422Z" fill="white"/>
<path d="M206.653 7.76121C206.558 7.83736 206.468 7.91821 206.379 8.00087C206.231 8.13745 206.093 8.28386 205.965 8.43813C205.825 8.60663 205.695 8.78367 205.583 8.97197C205.477 9.14954 205.387 9.33573 205.305 9.52548C205.268 9.61207 205.236 9.70055 205.202 9.78858C205.172 9.86625 205.143 9.94399 205.113 10.0217C205.091 10.0791 205.076 10.1401 205.058 10.1988C205.035 10.2727 205.012 10.3466 204.988 10.4205C204.96 10.5099 204.941 10.603 204.921 10.6943C204.897 10.802 204.879 10.9108 204.862 11.0198C204.828 11.2527 204.806 11.4859 204.783 11.7201C204.769 11.8628 204.763 12.0064 204.754 12.1494C204.737 12.421 204.726 12.6931 204.717 12.9652C204.715 13.0489 204.712 13.1326 204.709 13.2163C204.707 13.2868 204.708 13.3576 204.709 13.4281C204.711 13.5602 204.726 13.6892 204.744 13.82C204.772 14.0226 204.829 14.2161 204.907 14.4048C204.992 14.6127 205.086 14.814 205.205 15.005C205.321 15.1916 205.457 15.3663 205.599 15.5332C205.729 15.6849 205.873 15.8215 206.029 15.9464C206.205 16.0874 206.388 16.2164 206.584 16.3275C206.762 16.4282 206.946 16.5176 207.134 16.5973C207.379 16.7016 207.628 16.7939 207.88 16.88C208.009 16.924 208.137 16.9722 208.267 17.0114C208.441 17.0636 208.615 17.1159 208.788 17.1683C209.122 17.2687 209.466 17.3382 209.813 17.3701C210.021 17.3892 210.23 17.3773 210.436 17.3533C210.666 17.3267 210.892 17.2869 211.116 17.233C211.519 17.1364 211.915 17.0117 212.299 16.8561C212.699 16.6943 213.078 16.4922 213.433 16.2475C213.787 16.004 214.117 15.7246 214.414 15.4147C214.555 15.2675 214.692 15.1146 214.82 14.9563C214.958 14.7874 215.09 14.6098 215.193 14.4175C215.407 14.0167 215.524 13.5708 215.547 13.1177C215.559 12.8845 215.534 12.6546 215.501 12.4241C215.472 12.2171 215.431 12.0124 215.382 11.8094C215.332 11.604 215.275 11.3999 215.206 11.2C215.134 10.9945 215.052 10.7899 214.948 10.5986C214.845 10.4083 214.715 10.2321 214.56 10.0807C214.408 9.93151 214.232 9.80423 214.05 9.69427C213.682 9.47292 213.284 9.30306 212.872 9.18403C212.669 9.12512 212.462 9.0805 212.253 9.0445C212.028 9.00578 211.802 8.97712 211.574 8.96638C211.47 8.96154 211.366 8.96161 211.263 8.96706C211.135 8.97386 211.008 8.99179 210.882 9.01039C210.672 9.04117 210.463 9.08246 210.26 9.1413C210.047 9.20271 209.842 9.28733 209.642 9.38194C209.457 9.46959 209.281 9.576 209.118 9.69896C208.943 9.83085 208.784 9.97832 208.643 10.1465C208.502 10.3155 208.376 10.4992 208.268 10.6908C208.162 10.8785 208.075 11.0803 208.011 11.2861C207.945 11.4971 207.908 11.7211 207.894 11.9413C207.879 12.1657 207.905 12.3966 207.962 12.6138C207.991 12.7231 208.037 12.8286 208.085 12.9307C208.128 13.022 208.181 13.1086 208.238 13.192C208.3 13.2839 208.37 13.3725 208.448 13.4526C208.53 13.5378 208.626 13.6121 208.724 13.6783C208.816 13.7406 208.922 13.7829 209.025 13.8232C209.118 13.8598 209.216 13.8855 209.314 13.9072C209.532 13.9555 209.76 13.9689 209.982 13.9702C210.209 13.9716 210.437 13.9441 210.661 13.9098C210.868 13.878 211.071 13.8265 211.275 13.7784C211.429 13.742 211.58 13.6908 211.727 13.6331C211.837 13.5902 211.945 13.5438 212.048 13.4879C212.159 13.4278 212.261 13.3555 212.36 13.2779C212.533 13.1434 212.679 12.9773 212.801 12.7956C212.864 12.7004 212.909 12.5943 212.951 12.4882C212.997 12.372 213.016 12.2482 213.028 12.1245C213.033 12.0775 213.03 12.0306 213.025 11.9839C213.016 11.9133 213.006 11.845 212.987 11.7765C212.969 11.7107 212.939 11.6472 212.911 11.5851C212.889 11.5355 212.861 11.4885 212.831 11.4432C212.701 11.2463 212.528 11.0766 212.327 10.9532C212.244 10.9019 212.151 10.8632 212.059 10.8324C211.961 10.8001 211.858 10.7891 211.757 10.7765C211.559 10.7517 211.359 10.7831 211.164 10.8138C210.994 10.8405 210.827 10.8884 210.663 10.9396C210.475 10.9983 210.291 11.0731 210.114 11.1602C209.941 11.2457 209.783 11.3663 209.634 11.4886C209.557 11.5523 209.482 11.6193 209.407 11.6857C209.365 11.7232 209.324 11.7622 209.283 11.8011C209.22 11.8612 209.167 11.9289 209.114 11.9984C209.085 12.0487 209.07 12.1031 209.07 12.1613C209.07 12.2466 209.104 12.3292 209.164 12.3895C209.224 12.4498 209.307 12.484 209.393 12.484C209.473 12.484 209.566 12.4515 209.621 12.3895C209.682 12.3199 209.756 12.2619 209.828 12.2029C209.899 12.1436 209.973 12.0863 210.047 12.0291C210.208 11.9073 210.379 11.8029 210.563 11.7206C210.837 11.6098 211.124 11.5245 211.417 11.4795C211.524 11.4676 211.631 11.4642 211.739 11.4739C211.794 11.4838 211.849 11.4973 211.903 11.5159C211.954 11.5411 212.003 11.5703 212.05 11.6031C212.112 11.6562 212.169 11.7151 212.221 11.7776C212.255 11.8253 212.285 11.8752 212.311 11.9276C212.323 11.9633 212.333 11.9994 212.341 12.0363C212.343 12.0686 212.342 12.1008 212.34 12.1332C212.328 12.1942 212.312 12.2535 212.29 12.3119C212.254 12.3881 212.21 12.4596 212.161 12.528C212.084 12.6222 211.998 12.7086 211.904 12.7858C211.787 12.8707 211.661 12.9413 211.529 13.0003C211.344 13.0742 211.155 13.1299 210.962 13.1783C210.891 13.196 210.82 13.2139 210.749 13.2317C210.636 13.2599 210.521 13.2796 210.406 13.2963C210.127 13.3305 209.845 13.3406 209.566 13.3089C209.431 13.2875 209.298 13.254 209.171 13.2051C209.105 13.174 209.043 13.1375 208.983 13.0951C208.912 13.0356 208.847 12.9705 208.788 12.8989C208.713 12.7959 208.647 12.6863 208.594 12.5702C208.554 12.4651 208.527 12.3567 208.508 12.2457C208.493 12.0991 208.495 11.952 208.511 11.8054C208.541 11.6083 208.592 11.4164 208.666 11.2311C208.766 11.007 208.893 10.796 209.04 10.5998C209.159 10.4505 209.294 10.3134 209.443 10.1935C209.647 10.0425 209.869 9.92085 210.101 9.81966C210.418 9.69133 210.751 9.6129 211.09 9.56397C211.376 9.52986 211.664 9.53902 211.951 9.57448C212.386 9.63635 212.815 9.74033 213.222 9.90678C213.357 9.96554 213.488 10.0309 213.617 10.102C213.744 10.1719 213.868 10.2472 213.985 10.3332C214.095 10.422 214.198 10.5191 214.288 10.6287C214.387 10.7656 214.468 10.9152 214.536 11.0699C214.632 11.306 214.707 11.5493 214.77 11.7961C214.833 12.0437 214.884 12.2935 214.92 12.5466C214.936 12.6689 214.946 12.7914 214.948 12.9147C214.95 13.0375 214.943 13.1606 214.929 13.2826C214.897 13.4936 214.84 13.6991 214.76 13.897C214.719 13.9894 214.673 14.0797 214.622 14.1666C214.568 14.2568 214.506 14.3421 214.443 14.4258C214.288 14.6201 214.117 14.8023 213.943 14.9784C213.767 15.1553 213.58 15.3207 213.384 15.4746C213.015 15.7542 212.615 15.9933 212.19 16.1773C211.922 16.2873 211.646 16.3804 211.368 16.4609C211.079 16.5441 210.786 16.6168 210.489 16.6605C210.364 16.676 210.239 16.6867 210.113 16.6903C209.984 16.694 209.855 16.6862 209.727 16.6711C209.46 16.6313 209.197 16.5667 208.939 16.4879C208.773 16.4374 208.608 16.3868 208.442 16.3365C208.315 16.2977 208.191 16.2503 208.065 16.2071C207.858 16.1356 207.652 16.0616 207.449 15.978C207.122 15.8367 206.808 15.6674 206.523 15.4544C206.422 15.374 206.325 15.2889 206.234 15.1973C206.139 15.1012 206.051 14.9976 205.966 14.8915C205.802 14.6716 205.665 14.4346 205.555 14.183C205.521 14.0986 205.49 14.0132 205.465 13.9257C205.438 13.8342 205.42 13.7407 205.405 13.6465C205.379 13.4079 205.39 13.1665 205.395 12.927C205.398 12.7918 205.403 12.6568 205.408 12.5218C205.419 12.245 205.427 11.9674 205.45 11.6915C205.466 11.502 205.481 11.3131 205.504 11.1245C205.531 10.9357 205.566 10.7462 205.619 10.563C205.651 10.4501 205.684 10.3372 205.717 10.2243C205.738 10.1502 205.767 10.0782 205.793 10.0055C205.829 9.90451 205.864 9.80318 205.904 9.70373C205.97 9.5521 206.043 9.40372 206.123 9.2595C206.204 9.11566 206.296 8.97893 206.395 8.84757C206.497 8.71954 206.605 8.59717 206.719 8.48048C206.815 8.38217 206.915 8.28507 207.021 8.19651C207.128 8.10629 207.235 8.01622 207.342 7.926C207.429 7.86134 207.516 7.79675 207.602 7.73209C207.69 7.66683 207.783 7.60988 207.874 7.54984C207.961 7.49274 208.05 7.44199 208.14 7.39057C208.308 7.29483 208.476 7.20317 208.653 7.1255C208.895 7.02688 209.145 6.95413 209.403 6.91511C209.557 6.89726 209.714 6.89273 209.869 6.90914C209.914 6.91685 209.957 6.92691 210 6.94211C210.049 6.96434 210.096 6.98824 210.143 7.01357C210.265 7.08005 210.421 7.04488 210.493 6.92176C210.562 6.80439 210.524 6.63809 210.401 6.57162C210.31 6.52246 210.217 6.47731 210.12 6.44162C210.076 6.42551 210.028 6.41833 209.983 6.41107C209.912 6.3998 209.84 6.39186 209.768 6.38785C209.731 6.38573 209.693 6.38475 209.656 6.38475C209.472 6.38475 209.288 6.40872 209.108 6.44268C208.906 6.48087 208.71 6.54046 208.518 6.61397C208.35 6.67818 208.182 6.75274 208.023 6.83873C207.942 6.88282 207.861 6.92706 207.779 6.97122C207.735 6.99505 207.692 7.01811 207.649 7.04458C207.527 7.12157 207.402 7.19553 207.284 7.27955C207.151 7.37446 207.017 7.46786 206.889 7.57048C206.811 7.63416 206.732 7.69768 206.653 7.76121Z" fill="#FFD34E"/>
<path d="M212.65 6.09767C212.795 5.94763 212.94 5.79918 213.087 5.65141C213.156 5.58176 213.225 5.51203 213.295 5.44245C213.317 5.41969 213.339 5.39625 213.363 5.37484C213.592 5.16793 213.821 4.96034 214.052 4.75396C214.142 4.67236 214.238 4.5959 214.332 4.5171C214.438 4.42748 214.544 4.33779 214.65 4.2481C214.673 4.22881 214.696 4.2096 214.719 4.19047C214.811 4.21354 214.915 4.19214 214.982 4.11848C215.025 4.07129 215.067 4.02364 215.108 3.97501C215.195 3.87216 215.284 3.77067 215.357 3.65731C215.428 3.54811 215.401 3.39421 215.312 3.3049C215.258 3.2506 215.183 3.21974 215.106 3.21974C215.08 3.22315 215.055 3.22662 215.029 3.2301C214.98 3.24387 214.937 3.26875 214.901 3.3049C214.782 3.40261 214.668 3.50553 214.552 3.60649C214.448 3.69754 214.344 3.78875 214.239 3.8795C214.026 4.06418 213.81 4.24568 213.602 4.43542C213.473 4.55204 213.345 4.66858 213.217 4.78519C213.159 4.83813 213.101 4.89107 213.042 4.94393C213.019 4.96495 212.995 4.98522 212.973 5.00746C212.738 5.24379 212.504 5.48011 212.273 5.72007C212.172 5.82497 212.168 5.99339 212.273 6.09775C212.374 6.19916 212.549 6.20257 212.65 6.09767Z" fill="#FFD34E"/>
<path d="M216.227 8.41204C216.297 8.45318 216.399 8.4736 216.477 8.44486C217.137 8.20475 217.795 7.96298 218.453 7.72037C218.543 7.68725 218.634 7.65427 218.724 7.62145C218.798 7.59461 218.872 7.56761 218.946 7.54069C218.99 7.52458 219.034 7.50801 219.079 7.49145C219.117 7.47686 219.156 7.46302 219.196 7.45001C219.204 7.44751 219.211 7.44472 219.219 7.44192C219.23 7.44305 219.241 7.44366 219.252 7.44366C219.341 7.44366 219.426 7.40811 219.489 7.34565C219.619 7.21542 219.616 7.00261 219.489 6.87208C219.464 6.84644 219.434 6.82557 219.404 6.80568C219.349 6.7684 219.284 6.76363 219.22 6.75902C219.214 6.75864 219.209 6.75849 219.204 6.75849C219.147 6.75849 219.095 6.78118 219.043 6.80069C218.956 6.8326 218.87 6.86489 218.784 6.89734C218.71 6.92547 218.635 6.95338 218.561 6.98128C218.447 7.02394 218.334 7.06659 218.22 7.10901C217.951 7.2096 217.683 7.31003 217.414 7.4094C217.044 7.54575 216.674 7.68195 216.304 7.8171C216.222 7.8472 216.155 7.88902 216.11 7.96676C216.066 8.04201 216.054 8.13351 216.077 8.21753C216.099 8.29883 216.154 8.36947 216.227 8.41204Z" fill="#FFD34E"/>
<path d="M222.127 11.2392C222.085 11.2147 222.039 11.2024 221.99 11.2022C221.958 11.1991 221.925 11.1978 221.893 11.1978C221.775 11.1978 221.658 11.2151 221.542 11.2287C221.4 11.2454 221.258 11.26 221.116 11.2733C220.836 11.2995 220.556 11.3219 220.276 11.3445C219.968 11.3695 219.659 11.3962 219.351 11.4238C219.235 11.4341 219.119 11.4441 219.003 11.454C218.916 11.4614 218.828 11.4689 218.741 11.4764C218.648 11.4843 218.555 11.4845 218.462 11.4837C218.411 11.4377 218.339 11.415 218.272 11.4376C218.23 11.4517 218.192 11.4678 218.161 11.4994C218.124 11.5362 218.106 11.5833 218.093 11.6322C218.056 11.7602 218.157 11.8889 218.289 11.8897C218.439 11.8907 218.59 11.8994 218.741 11.89C218.832 11.8843 218.924 11.8786 219.016 11.8728C219.138 11.8653 219.261 11.8575 219.383 11.8495C219.547 11.8386 219.712 11.8279 219.876 11.8169C220.034 11.8063 220.192 11.8007 220.35 11.7927C220.618 11.779 220.887 11.7703 221.155 11.7619C221.286 11.7579 221.417 11.7546 221.548 11.7514C221.621 11.7496 221.695 11.7478 221.769 11.7453C221.843 11.7427 221.917 11.7399 221.99 11.7439C222.06 11.7476 222.133 11.7129 222.182 11.6645C222.232 11.614 222.261 11.5446 222.261 11.4731C222.261 11.4016 222.232 11.3322 222.182 11.2817C222.163 11.2674 222.145 11.2533 222.127 11.2392Z" fill="#FFD34E"/>
<path d="M220.299 16.5315C220.268 16.4802 220.227 16.4392 220.176 16.4089C220.048 16.3187 219.903 16.2561 219.762 16.1902C219.64 16.1331 219.517 16.0768 219.393 16.021C219.13 15.9015 218.866 15.7811 218.603 15.6601C218.355 15.546 218.107 15.4315 217.859 15.3169C217.831 15.305 217.802 15.2931 217.774 15.2812C217.743 15.2727 217.711 15.2685 217.68 15.2685C217.649 15.2685 217.617 15.2727 217.586 15.2812C217.497 15.3056 217.42 15.3648 217.374 15.4442C217.326 15.5261 217.313 15.6259 217.338 15.7175C217.361 15.7989 217.421 15.8926 217.501 15.9295C218.115 16.213 218.73 16.4935 219.344 16.7749C219.507 16.8491 219.672 16.9189 219.831 16.9995C219.915 17.042 220.002 17.0595 220.094 17.034C220.18 17.0104 220.254 16.9532 220.299 16.8767C220.345 16.7977 220.358 16.7016 220.333 16.6132C220.322 16.586 220.31 16.5588 220.299 16.5315Z" fill="#FFD34E"/>
<path d="M213.644 19.5472C213.671 19.6035 213.707 19.6567 213.738 19.7108C213.773 19.7715 213.805 19.8344 213.843 19.8934C213.888 19.9641 213.934 20.0346 213.979 20.1053C214.061 20.2338 214.147 20.3601 214.23 20.4879C214.316 20.6198 214.404 20.754 214.466 20.899C214.492 20.9433 214.528 20.9784 214.572 21.0046C214.64 21.0444 214.723 21.0552 214.799 21.0343C214.872 21.0141 214.936 20.9648 214.975 20.899C215.012 20.8346 215.029 20.7445 215.004 20.6722C214.971 20.5748 214.929 20.481 214.881 20.3898C214.848 20.3259 214.804 20.2673 214.763 20.2084C214.682 20.0917 214.595 19.9781 214.512 19.863C214.466 19.8005 214.425 19.7349 214.381 19.6711C214.352 19.6273 214.324 19.5838 214.297 19.5383C214.248 19.4564 214.199 19.3744 214.15 19.2925C214.126 19.2511 214.106 19.2072 214.084 19.1638C214.036 19.0662 213.988 18.9685 213.94 18.8708C213.842 18.6304 213.743 18.3905 213.647 18.149C213.638 18.1266 213.628 18.1042 213.619 18.0819C213.594 18.0397 213.56 18.0062 213.518 17.9812C213.475 17.9559 213.425 17.9429 213.376 17.9429C213.351 17.9429 213.326 17.9462 213.301 17.9529C213.231 17.9722 213.17 18.0191 213.133 18.082C213.099 18.1412 213.079 18.232 213.105 18.2985C213.185 18.5001 213.266 18.701 213.349 18.9017C213.373 18.9603 213.397 19.0189 213.421 19.0776C213.455 19.1618 213.496 19.2428 213.536 19.3246C213.572 19.3989 213.608 19.473 213.644 19.5472Z" fill="#FFD34E"/>
<path d="M210.453 19.988C210.486 19.9744 210.515 19.9499 210.533 19.9186C210.555 19.8807 210.561 19.8345 210.55 19.7921C210.544 19.7789 210.539 19.7659 210.533 19.7528C210.518 19.7281 210.499 19.7085 210.474 19.6939C210.438 19.6658 210.397 19.6588 210.353 19.6523C210.338 19.6503 210.324 19.6483 210.309 19.6463C210.279 19.6464 210.252 19.6539 210.226 19.6688C210.201 19.6834 210.182 19.703 210.167 19.7277C210.152 19.7534 210.145 19.7811 210.145 19.8108C210.133 19.9137 210.118 20.0161 210.107 20.119C210.095 20.2295 210.094 20.3406 210.097 20.4516C210.101 20.648 210.123 20.8435 210.133 21.0398C210.141 21.208 210.15 21.3761 210.158 21.5443C210.172 21.8128 210.185 22.0815 210.2 22.3499C210.208 22.4988 210.216 22.6477 210.223 22.7966C210.227 22.8617 210.231 22.9266 210.236 22.9916C210.239 23.0361 210.246 23.0799 210.252 23.124C210.261 23.1856 210.27 23.2447 210.293 23.3032C210.3 23.3219 210.308 23.3405 210.316 23.3592C210.337 23.3944 210.365 23.4225 210.4 23.4434C210.454 23.4751 210.52 23.4837 210.581 23.467C210.64 23.4509 210.69 23.4117 210.721 23.3592C210.729 23.3405 210.737 23.3219 210.745 23.3032C210.756 23.2616 210.756 23.2201 210.745 23.1785C210.727 23.1364 210.716 23.0935 210.707 23.049C210.701 23.0211 210.694 22.993 210.69 22.9647C210.682 22.9088 210.674 22.8527 210.666 22.7968C210.632 22.5428 210.599 22.2886 210.573 22.0336C210.541 21.7134 210.512 21.3933 210.484 21.0728C210.468 20.8998 210.452 20.7269 210.439 20.5538C210.431 20.4348 210.426 20.3154 210.433 20.1962C210.437 20.1267 210.445 20.0573 210.453 19.988Z" fill="#FFD34E"/>
<path d="M206.425 19.801C206.426 19.8014 206.427 19.8019 206.428 19.8023C206.472 19.8286 206.545 19.8165 206.569 19.7654C206.593 19.7128 206.616 19.6601 206.642 19.6084C206.674 19.5459 206.712 19.4862 206.739 19.4219C206.752 19.4001 206.758 19.3768 206.758 19.3516C206.758 19.3265 206.752 19.303 206.739 19.2813C206.727 19.2603 206.71 19.2437 206.689 19.2313C206.668 19.2186 206.644 19.2123 206.619 19.2123C206.577 19.2178 206.525 19.2174 206.489 19.243C206.456 19.2655 206.425 19.2898 206.397 19.3169C206.342 19.3687 206.298 19.4328 206.253 19.4932C206.086 19.7062 205.928 19.925 205.777 20.1493C205.668 20.3109 205.559 20.4725 205.45 20.634C205.389 20.7244 205.33 20.8163 205.271 20.908C205.192 21.0305 205.112 21.1525 205.034 21.2757C204.957 21.3974 204.881 21.5192 204.804 21.6409C204.772 21.6903 204.741 21.7398 204.71 21.7892C204.692 21.8174 204.674 21.8455 204.657 21.8735C204.611 21.9455 204.556 22.0153 204.543 22.1023C204.532 22.1458 204.532 22.1894 204.543 22.2328C204.56 22.2941 204.601 22.3474 204.656 22.3795C204.753 22.4362 204.873 22.4171 204.953 22.3411C204.989 22.3073 205.022 22.2725 205.052 22.2342C205.065 22.2175 205.078 22.2008 205.091 22.184C205.114 22.1452 205.125 22.1034 205.125 22.0586C205.125 22.0368 205.122 22.0153 205.117 21.9945C205.126 21.9761 205.135 21.9577 205.144 21.9393C205.168 21.8922 205.193 21.8456 205.218 21.7993C205.283 21.679 205.346 21.5571 205.415 21.4388C205.508 21.2783 205.601 21.1177 205.695 20.9573C205.75 20.8627 205.808 20.7702 205.866 20.6772C205.953 20.538 206.039 20.3986 206.126 20.2593C206.187 20.1609 206.25 20.0638 206.313 19.9669C206.35 19.9111 206.387 19.8558 206.425 19.801Z" fill="#FFD34E"/>
<path d="M202.102 19.5709C202.108 19.5496 202.111 19.5277 202.112 19.5059C202.263 19.3827 202.414 19.2597 202.565 19.1364C202.751 18.984 202.937 18.8328 203.128 18.6851C203.397 18.4762 203.666 18.2673 203.935 18.0583C204.082 17.9466 204.231 17.8371 204.378 17.7265C204.401 17.7092 204.423 17.6918 204.446 17.6744C204.487 17.6328 204.516 17.5839 204.532 17.5276C204.555 17.4416 204.543 17.3479 204.498 17.2709C204.454 17.1965 204.382 17.1407 204.299 17.1179C204.269 17.1139 204.24 17.11 204.21 17.106C204.15 17.1062 204.094 17.1214 204.042 17.1514C203.84 17.3029 203.636 17.4533 203.436 17.6084C203.291 17.7213 203.145 17.8342 202.999 17.9471C202.792 18.1078 202.581 18.265 202.378 18.4307C202.117 18.6432 201.856 18.8557 201.595 19.0683C201.387 19.2378 201.179 19.4075 200.974 19.5815C200.921 19.6266 200.868 19.6715 200.815 19.7166C200.755 19.7677 200.699 19.8221 200.641 19.8761C200.536 19.9759 200.518 20.1466 200.591 20.2699C200.633 20.3426 200.704 20.3969 200.785 20.4192C200.864 20.4411 200.965 20.4335 201.035 20.3864C201.348 20.1776 201.656 19.9612 201.966 19.7482C202.031 19.703 202.08 19.6494 202.102 19.5709Z" fill="#FFD34E"/>
<path d="M201.33 14.2554C201.472 14.2435 201.615 14.2379 201.757 14.233C201.89 14.2285 202.023 14.2254 202.155 14.2388C202.176 14.2425 202.197 14.247 202.218 14.2531C202.239 14.259 202.259 14.2667 202.279 14.2749C202.287 14.2785 202.295 14.2823 202.303 14.286C202.325 14.2953 202.347 14.3045 202.369 14.3137C202.417 14.3267 202.466 14.3267 202.514 14.3137C202.583 14.2948 202.643 14.249 202.679 14.1876C202.716 14.1241 202.726 14.047 202.706 13.976C202.689 13.9131 202.642 13.8404 202.58 13.8121C202.481 13.7666 202.381 13.7213 202.272 13.7048C202.157 13.6873 202.043 13.6797 201.928 13.6797C201.92 13.6797 201.913 13.6797 201.906 13.6797C201.697 13.6815 201.487 13.6913 201.279 13.7086C201.049 13.7276 200.82 13.7538 200.591 13.7821C200.425 13.8028 200.259 13.8233 200.093 13.8437C199.921 13.8649 199.75 13.8925 199.579 13.9171C199.385 13.945 199.191 13.972 198.997 13.999C198.867 14.0145 198.735 14.0224 198.61 14.0649C198.56 14.0789 198.517 14.104 198.48 14.1405C198.425 14.1954 198.394 14.2707 198.394 14.3483C198.394 14.4259 198.425 14.5013 198.48 14.5562C198.531 14.6077 198.613 14.6478 198.688 14.6422C198.769 14.6362 198.85 14.6333 198.93 14.6229C198.972 14.6175 199.014 14.6121 199.056 14.6068C199.154 14.5943 199.251 14.582 199.348 14.5687C199.515 14.5458 199.682 14.5241 199.849 14.4951C199.896 14.4818 199.937 14.4577 199.972 14.423L199.973 14.4228C200.035 14.413 200.098 14.4031 200.161 14.3933C200.362 14.3666 200.563 14.3405 200.764 14.3142C200.952 14.2894 201.141 14.2713 201.33 14.2554Z" fill="#FFD34E"/>
<path d="M198.606 9.96078C198.663 9.97606 198.722 9.98286 198.779 9.99625C198.864 10.0161 198.949 10.0359 199.034 10.0557C199.153 10.0834 199.272 10.1109 199.391 10.1382C199.556 10.1758 199.72 10.2133 199.884 10.2511C199.999 10.2772 200.112 10.3086 200.225 10.3373C200.42 10.3866 200.614 10.4359 200.809 10.4851C200.878 10.5026 200.946 10.5205 201.014 10.5428C201.368 10.6587 201.721 10.7747 202.075 10.8907C202.276 10.9563 202.472 11.033 202.669 11.1072C202.736 11.1322 202.824 11.114 202.883 11.0792C202.945 11.0429 202.992 10.9827 203.011 10.9134C203.03 10.8417 203.02 10.7636 202.983 10.6995C202.968 10.6808 202.954 10.6621 202.939 10.6434C202.905 10.609 202.864 10.5852 202.817 10.572C202.619 10.4976 202.423 10.4208 202.223 10.3546C202.04 10.2942 201.857 10.2337 201.674 10.1733C201.504 10.1169 201.333 10.0606 201.163 10.0043C201.095 9.9818 201.027 9.96365 200.958 9.9458C200.764 9.89544 200.569 9.84515 200.375 9.79486C200.262 9.76544 200.149 9.73398 200.035 9.70668C199.752 9.63892 199.469 9.57191 199.186 9.50279C199.112 9.48456 199.037 9.46626 198.963 9.44804C198.943 9.38489 198.9 9.33021 198.843 9.29679C198.822 9.28794 198.801 9.27901 198.78 9.27009C198.756 9.26374 198.733 9.26064 198.709 9.26064C198.686 9.26064 198.662 9.26381 198.639 9.27009C198.61 9.27501 198.582 9.28075 198.554 9.28877C198.501 9.30374 198.451 9.32938 198.401 9.35124C198.382 9.36598 198.363 9.38081 198.344 9.39555C198.309 9.43087 198.285 9.47254 198.271 9.52041C198.253 9.58862 198.258 9.67877 198.3 9.73859C198.341 9.7975 198.38 9.85937 198.445 9.89567C198.495 9.92387 198.55 9.94573 198.606 9.96078Z" fill="#FFD34E"/>
<path d="M199.65 5.42733C199.702 5.47422 199.756 5.51899 199.809 5.56436C199.926 5.66404 200.046 5.76099 200.164 5.85855C200.274 5.94877 200.388 6.03392 200.501 6.12044C200.639 6.22661 200.776 6.33536 200.918 6.4361C201.261 6.67939 201.616 6.90354 201.986 7.10455C202.184 7.21239 202.384 7.31698 202.586 7.41742C202.918 7.58273 203.251 7.74805 203.583 7.91337C203.785 8.01403 203.989 8.11166 204.193 8.21027C204.248 8.23727 204.303 8.24967 204.365 8.23289C204.421 8.21746 204.469 8.18017 204.498 8.13019C204.529 8.07861 204.537 8.01576 204.521 7.95806C204.506 7.90573 204.468 7.84901 204.418 7.82458C204.206 7.7212 203.994 7.61911 203.784 7.51301C203.615 7.42815 203.447 7.3433 203.279 7.25837C203.115 7.17617 202.952 7.09389 202.789 7.01146C202.566 6.89923 202.347 6.77914 202.13 6.65632C201.771 6.45311 201.43 6.222 201.098 5.97766C200.995 5.89485 200.891 5.81151 200.787 5.72854C200.696 5.65557 200.604 5.58372 200.516 5.50719C200.406 5.41198 200.296 5.31752 200.188 5.22027C200.137 5.17459 200.086 5.12967 200.037 5.08285C199.966 5.0163 199.894 4.95127 199.83 4.87836C199.824 4.86959 199.819 4.86059 199.814 4.85121C199.767 4.76886 199.678 4.72325 199.588 4.72325C199.543 4.72325 199.498 4.73445 199.458 4.75789C199.333 4.83079 199.296 4.98961 199.365 5.11371C199.434 5.23887 199.545 5.33295 199.65 5.42733Z" fill="#FFD34E"/>
<path d="M204.405 3.29136C204.436 3.33613 204.471 3.37825 204.505 3.41985C204.534 3.45426 204.564 3.48746 204.593 3.52209C204.773 3.75857 204.945 4.00118 205.128 4.2357C205.327 4.49146 205.527 4.74692 205.726 5.00246C205.944 5.28107 206.164 5.55786 206.383 5.83472C206.404 5.85121 206.426 5.86777 206.447 5.88426C206.497 5.91292 206.55 5.92729 206.607 5.92744C206.691 5.92744 206.772 5.89379 206.831 5.83465C206.89 5.77543 206.924 5.69429 206.924 5.61049C206.92 5.58251 206.917 5.55438 206.913 5.52625C206.898 5.47255 206.871 5.42597 206.831 5.38649C206.424 4.87231 206.022 4.35466 205.619 3.83715C205.521 3.70639 205.424 3.57609 205.326 3.44541C205.274 3.3753 205.221 3.30512 205.169 3.23494C205.187 3.19668 205.197 3.15425 205.197 3.11107C205.197 3.03454 205.166 2.96798 205.115 2.91263C205.024 2.81462 204.914 2.73763 204.799 2.67115C204.751 2.64317 204.697 2.62986 204.645 2.62986C204.537 2.62986 204.432 2.68469 204.374 2.7827C204.335 2.84978 204.303 2.91762 204.303 2.99801C204.303 3.0846 204.337 3.1665 204.375 3.24235C204.383 3.2596 204.395 3.27555 204.405 3.29136Z" fill="#FFD34E"/>
<path d="M209.488 4.14956C209.498 4.2689 209.509 4.38838 209.523 4.50742C209.539 4.63863 209.56 4.76908 209.578 4.89992C209.588 4.92207 209.597 4.94431 209.607 4.96654C209.631 5.00851 209.665 5.04186 209.707 5.06667C209.771 5.10441 209.85 5.11469 209.922 5.0948C209.991 5.07559 210.052 5.02901 210.089 4.96654C210.098 4.94438 210.107 4.92215 210.117 4.89992C210.13 4.85046 210.13 4.801 210.117 4.75154C210.107 4.68136 210.096 4.61133 210.087 4.54122C210.062 4.34278 210.047 4.14268 210.032 3.94333C210.016 3.72855 210.005 3.51347 210 3.29817C209.994 3.08248 209.998 2.86642 210.005 2.65074C210.009 2.50379 210.012 2.35602 210.023 2.20923C210.037 2.02834 210.05 1.84729 210.064 1.66624C210.074 1.53306 210.091 1.40034 210.105 1.26747C210.106 1.26316 210.106 1.25885 210.107 1.25461C210.114 1.24879 210.121 1.24251 210.127 1.23601C210.142 1.2168 210.157 1.19751 210.172 1.17823C210.198 1.13361 210.211 1.08559 210.211 1.03394C210.2 0.95105 210.188 0.874064 210.166 0.793901C210.146 0.719258 210.096 0.654674 210.029 0.615576C209.986 0.590014 209.928 0.572998 209.874 0.572998C209.848 0.572998 209.822 0.576855 209.799 0.585401C209.765 0.597955 209.731 0.61013 209.7 0.62881C209.65 0.658909 209.61 0.700125 209.584 0.751853C209.547 0.823697 209.535 0.895087 209.532 0.975326C209.529 1.01798 209.525 1.06033 209.522 1.10276C209.516 1.16757 209.509 1.23253 209.504 1.29749C209.494 1.43452 209.483 1.57141 209.475 1.70852C209.465 1.88268 209.456 2.0567 209.446 2.23086C209.436 2.4135 209.434 2.59734 209.431 2.78028C209.428 2.99597 209.431 3.21157 209.439 3.42711C209.449 3.66843 209.466 3.90914 209.488 4.14956Z" fill="#FFD34E"/>
</svg>
